<svg width="134" height="166" viewBox="0 0 134 166" fill="none" xmlns="http://www.w3.org/2000/svg">
<path d="M69.5 165.187C60.1771 165.187 51.3229 163.729 42.9375 160.813C34.6042 157.844 27.2083 153.182 20.75 146.828C14.2917 140.474 9.21354 132.193 5.51563 121.984C1.86979 111.776 0.0729172 99.4062 0.125 84.875C0.177084 71.9062 1.84375 60.2396 5.125 49.875C8.45833 39.5104 13.1719 30.6823 19.2656 23.3906C25.4115 16.099 32.7552 10.526 41.2969 6.67186C49.8385 2.76562 59.3438 0.812494 69.8125 0.812494C81.5833 0.812494 91.9479 3.07812 100.906 7.60937C109.865 12.1406 117 18.2083 122.313 25.8125C127.677 33.3646 130.802 41.6979 131.688 50.8125H88.875C87.8854 46.2813 85.5938 42.974 82 40.8906C78.4583 38.7552 74.3958 37.6875 69.8125 37.6875C60.6979 37.6875 54.0052 41.6458 49.7344 49.5625C45.5156 57.4792 43.3542 67.8958 43.25 80.8125H44.1875C46.2188 75.9167 49.2917 71.724 53.4062 68.2344C57.5208 64.7448 62.3125 62.0625 67.7813 60.1875C73.25 58.3125 79.0313 57.375 85.125 57.375C94.8125 57.375 103.276 59.5625 110.516 63.9375C117.807 68.3125 123.484 74.3021 127.547 81.9062C131.609 89.5104 133.615 98.2083 133.563 108C133.615 119.458 130.906 129.484 125.438 138.078C120.021 146.672 112.495 153.339 102.859 158.078C93.224 162.818 82.1042 165.187 69.5 165.187ZM69.1875 132.375C73.5104 132.375 77.3385 131.385 80.6719 129.406C84.0573 127.427 86.6875 124.719 88.5625 121.281C90.4896 117.844 91.4271 113.937 91.375 109.562C91.4271 105.135 90.4896 101.229 88.5625 97.8437C86.6875 94.4062 84.0573 91.6979 80.6719 89.7187C77.3385 87.7396 73.5104 86.75 69.1875 86.75C66.0104 86.75 63.0677 87.3229 60.3594 88.4688C57.7031 89.5625 55.3854 91.151 53.4062 93.2344C51.4271 95.2656 49.8646 97.6875 48.7188 100.5C47.625 103.26 47.0521 106.281 47 109.562C47.0521 113.937 48.0417 117.844 49.9687 121.281C51.8958 124.719 54.526 127.427 57.8594 129.406C61.1927 131.385 64.9688 132.375 69.1875 132.375Z" fill="#00349A"/>
</svg>
