<svg width="437" height="85" viewBox="0 0 437 85" fill="none" xmlns="http://www.w3.org/2000/svg">
<path d="M101.307 84.2386C100.33 84.2386 99.4801 84.0398 98.7585 83.642C98.0426 83.2443 97.5114 82.6989 97.1648 82.0057C96.8239 81.3125 96.7273 80.5227 96.875 79.6364H97.4205C97.2955 80.4205 97.3778 81.1193 97.6676 81.733C97.9631 82.3409 98.4233 82.821 99.0483 83.1733C99.679 83.5199 100.432 83.6932 101.307 83.6932C102.227 83.6932 103.074 83.5028 103.847 83.1222C104.625 82.7358 105.267 82.2244 105.773 81.5881C106.284 80.946 106.602 80.2386 106.727 79.4659C106.864 78.625 106.761 77.892 106.42 77.267C106.085 76.6364 105.56 76.1477 104.844 75.8011C104.134 75.4489 103.284 75.2727 102.295 75.2727H102.023L102.091 74.7273H102.364C103.239 74.7273 104.054 74.5653 104.81 74.2415C105.565 73.9176 106.196 73.4602 106.702 72.8693C107.207 72.2784 107.523 71.5795 107.648 70.7727C107.773 70.0227 107.722 69.3523 107.494 68.7614C107.267 68.1705 106.881 67.7045 106.335 67.3636C105.79 67.0227 105.102 66.8523 104.273 66.8523C103.466 66.8523 102.707 67.0256 101.997 67.3722C101.287 67.7131 100.69 68.1903 100.207 68.804C99.7244 69.4119 99.4205 70.1136 99.2955 70.9091H98.75C98.8977 70.0114 99.233 69.2159 99.7557 68.5227C100.278 67.8295 100.929 67.2869 101.707 66.8949C102.486 66.5028 103.33 66.3068 104.239 66.3068C105.159 66.3068 105.94 66.5028 106.582 66.8949C107.23 67.2812 107.696 67.8125 107.98 68.4886C108.27 69.1591 108.341 69.9205 108.193 70.7727C108.04 71.7955 107.608 72.6733 106.898 73.4062C106.188 74.1335 105.313 74.642 104.273 74.9318V75C105.364 75.2898 106.182 75.8295 106.727 76.6193C107.278 77.4091 107.46 78.358 107.273 79.4659C107.125 80.3636 106.773 81.1733 106.216 81.8949C105.659 82.6165 104.957 83.1875 104.111 83.608C103.264 84.0284 102.33 84.2386 101.307 84.2386ZM115.923 84H111.355L114.253 66.5455H119.264C120.866 66.5455 122.185 66.892 123.219 67.5852C124.253 68.2727 124.969 69.2642 125.366 70.5597C125.764 71.8494 125.81 73.3977 125.503 75.2045C125.185 77.0568 124.594 78.6392 123.73 79.9517C122.872 81.2642 121.781 82.267 120.457 82.9602C119.139 83.6534 117.628 84 115.923 84ZM111.994 83.4545H116.026C117.611 83.4545 119.023 83.1193 120.261 82.4489C121.506 81.7784 122.531 80.8267 123.338 79.5938C124.145 78.3608 124.685 76.8977 124.957 75.2045C125.236 73.4773 125.202 72.0114 124.855 70.8068C124.509 69.5966 123.858 68.6761 122.903 68.0455C121.955 67.4091 120.707 67.0909 119.162 67.0909H114.705L111.994 83.4545ZM133.898 84H133.318L142.455 66.5455H143.205L146.545 84H145.966L142.761 67.2273H142.693L133.898 84ZM136.966 77.5568H145.08L144.977 78.1023H136.864L136.966 77.5568ZM151.653 75.2045L150.187 84H149.641L151.823 70.9091H152.369L152.028 72.9886H152.096C152.505 72.3068 153.096 71.7614 153.869 71.3523C154.647 70.9432 155.488 70.7386 156.391 70.7386C157.266 70.7386 158.008 70.929 158.616 71.3097C159.224 71.6903 159.661 72.2159 159.928 72.8864C160.195 73.5568 160.255 74.3295 160.107 75.2045L158.641 84H158.096L159.562 75.2045C159.749 74.0455 159.55 73.1023 158.965 72.375C158.386 71.6477 157.516 71.2841 156.357 71.2841C155.585 71.2841 154.863 71.4517 154.192 71.7869C153.528 72.1222 152.968 72.5852 152.513 73.1761C152.065 73.767 151.778 74.4432 151.653 75.2045ZM163.35 84L165.532 70.9091H166.077L163.896 84H163.35ZM166.231 68.5227C166.06 68.5227 165.924 68.4631 165.822 68.3438C165.725 68.2244 165.691 68.0795 165.719 67.9091C165.742 67.7898 165.81 67.6818 165.924 67.5852C166.038 67.483 166.163 67.4318 166.299 67.4318C166.469 67.4318 166.603 67.4915 166.7 67.6108C166.802 67.7301 166.839 67.875 166.81 68.0455C166.788 68.1705 166.719 68.2812 166.606 68.3778C166.492 68.4744 166.367 68.5227 166.231 68.5227ZM168.602 84L170.784 70.9091H171.33L170.989 72.8523H171.057C171.415 72.2216 171.935 71.7131 172.616 71.3267C173.298 70.9347 174.074 70.7386 174.943 70.7386C175.932 70.7386 176.676 70.983 177.176 71.4716C177.676 71.9602 177.977 72.6136 178.08 73.4318H178.148C178.489 72.6136 179.031 71.9602 179.776 71.4716C180.52 70.983 181.386 70.7386 182.375 70.7386C183.688 70.7386 184.588 71.1562 185.077 71.9915C185.565 72.821 185.699 73.892 185.477 75.2045L184.011 84H183.466L184.932 75.2045C185.119 74.0455 185.023 73.1023 184.642 72.375C184.267 71.6477 183.5 71.2841 182.341 71.2841C181.182 71.2841 180.222 71.6534 179.46 72.392C178.705 73.125 178.233 74.0625 178.045 75.2045L176.58 84H176.034L177.5 75.2045C177.688 74.0455 177.591 73.1023 177.21 72.375C176.835 71.6477 176.068 71.2841 174.909 71.2841C174.136 71.2841 173.449 71.4517 172.847 71.7869C172.25 72.1222 171.759 72.5852 171.372 73.1761C170.991 73.767 170.739 74.4432 170.614 75.2045L169.148 84H168.602ZM191.88 84.2727C191.164 84.2727 190.528 84.125 189.971 83.8295C189.42 83.5341 189.005 83.1023 188.727 82.5341C188.454 81.9659 188.38 81.2727 188.505 80.4545C188.585 80.0114 188.727 79.5966 188.931 79.2102C189.141 78.8182 189.451 78.4631 189.86 78.1449C190.275 77.8267 190.823 77.554 191.505 77.3267C192.187 77.0994 193.039 76.9261 194.062 76.8068C194.675 76.7386 195.258 76.6591 195.809 76.5682C196.36 76.4773 196.817 76.3409 197.181 76.1591C197.545 75.9773 197.755 75.7159 197.812 75.375L197.948 74.5909C198.119 73.5852 197.931 72.7784 197.386 72.1705C196.84 71.5568 196.005 71.25 194.88 71.25C193.96 71.25 193.104 71.4574 192.315 71.8722C191.531 72.2869 190.942 72.8523 190.55 73.5682L190.073 73.3636C190.369 72.8182 190.761 72.3466 191.249 71.9489C191.744 71.5511 192.3 71.2443 192.92 71.0284C193.545 70.8125 194.198 70.7045 194.88 70.7045C195.545 70.7045 196.124 70.804 196.619 71.0028C197.113 71.196 197.513 71.4688 197.82 71.821C198.133 72.1676 198.346 72.5767 198.46 73.0483C198.579 73.5199 198.59 74.0341 198.494 74.5909L196.925 84H196.38L196.823 81.3409H196.755C196.391 81.9318 195.954 82.4489 195.442 82.892C194.937 83.3295 194.38 83.6705 193.772 83.9148C193.17 84.1534 192.539 84.2727 191.88 84.2727ZM191.88 83.7273C192.71 83.7273 193.505 83.5057 194.266 83.0625C195.033 82.6136 195.687 81.9915 196.227 81.196C196.772 80.3949 197.13 79.4659 197.3 78.4091L197.641 76.4318C197.465 76.5511 197.255 76.6562 197.011 76.7472C196.772 76.8381 196.505 76.9205 196.21 76.9943C195.92 77.0625 195.604 77.1222 195.263 77.1733C194.928 77.2244 194.573 77.2727 194.198 77.3182C193.005 77.4545 192.05 77.6619 191.335 77.9403C190.619 78.2187 190.085 78.5682 189.732 78.9886C189.38 79.4091 189.153 79.8977 189.05 80.4545C188.897 81.4432 189.087 82.2358 189.621 82.8324C190.156 83.429 190.908 83.7273 191.88 83.7273ZM207.898 70.9091L207.796 71.4545H202.614L202.717 70.9091H207.898ZM205.137 67.7727H205.683L203.467 81.2386C203.376 81.75 203.413 82.1903 203.577 82.5597C203.742 82.9233 203.995 83.2045 204.336 83.4034C204.677 83.5966 205.069 83.6932 205.512 83.6932C205.665 83.6932 205.813 83.679 205.955 83.6506C206.103 83.6165 206.262 83.5739 206.433 83.5227L206.501 84.0341C206.313 84.1023 206.134 84.1534 205.964 84.1875C205.799 84.2216 205.614 84.2386 205.41 84.2386C204.876 84.2386 204.401 84.1165 203.987 83.8722C203.577 83.6278 203.271 83.2812 203.066 82.8324C202.867 82.3835 202.819 81.8523 202.921 81.2386L205.137 67.7727ZM210.038 84L212.219 70.9091H212.765L210.583 84H210.038ZM212.918 68.5227C212.748 68.5227 212.612 68.4631 212.509 68.3438C212.413 68.2244 212.379 68.0795 212.407 67.9091C212.43 67.7898 212.498 67.6818 212.612 67.5852C212.725 67.483 212.85 67.4318 212.987 67.4318C213.157 67.4318 213.29 67.4915 213.387 67.6108C213.489 67.7301 213.526 67.875 213.498 68.0455C213.475 68.1705 213.407 68.2812 213.293 68.3778C213.18 68.4744 213.055 68.5227 212.918 68.5227ZM219.926 84.2727C218.892 84.2727 218.011 83.9744 217.284 83.3778C216.562 82.7812 216.045 81.9659 215.733 80.9318C215.426 79.8977 215.381 78.7273 215.597 77.4205C215.812 76.1477 216.239 75.0057 216.875 73.9943C217.517 72.9773 218.29 72.1761 219.193 71.5909C220.102 71 221.063 70.7045 222.074 70.7045C223.119 70.7045 224.003 71.0057 224.724 71.608C225.452 72.2102 225.969 73.0284 226.276 74.0625C226.588 75.0966 226.642 76.2614 226.438 77.5568C226.222 78.8295 225.793 79.9744 225.151 80.9915C224.509 82.0028 223.733 82.804 222.824 83.3949C221.915 83.9801 220.949 84.2727 219.926 84.2727ZM219.926 83.7273C220.869 83.7273 221.759 83.4545 222.594 82.9091C223.429 82.358 224.139 81.608 224.724 80.6591C225.31 79.7045 225.699 78.625 225.892 77.4205C226.085 76.25 226.048 75.1989 225.781 74.267C225.514 73.3352 225.063 72.5994 224.426 72.0597C223.79 71.5199 223.017 71.25 222.108 71.25C221.176 71.25 220.293 71.5284 219.457 72.0852C218.622 72.6364 217.909 73.3892 217.318 74.3438C216.727 75.2926 216.335 76.3636 216.142 77.5568C215.938 78.7273 215.969 79.7784 216.236 80.7102C216.509 81.642 216.963 82.3778 217.599 82.9176C218.241 83.4574 219.017 83.7273 219.926 83.7273ZM231.2 75.2045L229.734 84H229.188L231.37 70.9091H231.915L231.575 72.9886H231.643C232.052 72.3068 232.643 71.7614 233.415 71.3523C234.194 70.9432 235.035 70.7386 235.938 70.7386C236.813 70.7386 237.555 70.929 238.163 71.3097C238.771 71.6903 239.208 72.2159 239.475 72.8864C239.742 73.5568 239.802 74.3295 239.654 75.2045L238.188 84H237.643L239.109 75.2045C239.296 74.0455 239.097 73.1023 238.512 72.375C237.933 71.6477 237.063 71.2841 235.904 71.2841C235.131 71.2841 234.41 71.4517 233.739 71.7869C233.075 72.1222 232.515 72.5852 232.06 73.1761C231.612 73.767 231.325 74.4432 231.2 75.2045ZM261.511 70.9091C261.619 69.7159 261.326 68.7358 260.633 67.9688C259.94 67.2017 258.914 66.8182 257.556 66.8182C256.67 66.8182 255.846 66.9915 255.085 67.3381C254.329 67.679 253.698 68.1477 253.192 68.7443C252.687 69.3352 252.369 70.0114 252.238 70.7727C252.164 71.2159 252.17 71.625 252.255 72C252.346 72.3693 252.516 72.7102 252.766 73.0227C253.022 73.3295 253.36 73.608 253.781 73.858C254.207 74.108 254.715 74.3295 255.306 74.5227L257.181 75.1364C257.897 75.3693 258.508 75.6307 259.013 75.9205C259.525 76.2102 259.931 76.5341 260.232 76.892C260.533 77.25 260.735 77.6506 260.837 78.0938C260.945 78.5369 260.954 79.0284 260.863 79.5682C260.71 80.5057 260.349 81.3295 259.781 82.0398C259.212 82.7443 258.479 83.2926 257.582 83.6847C256.69 84.0767 255.67 84.2727 254.522 84.2727C253.465 84.2727 252.567 84.0881 251.829 83.7188C251.09 83.3438 250.542 82.8295 250.184 82.1761C249.832 81.517 249.698 80.7614 249.783 79.9091H250.329C250.261 80.6591 250.386 81.321 250.704 81.8949C251.028 82.4687 251.522 82.9176 252.187 83.2415C252.852 83.5653 253.664 83.7273 254.624 83.7273C255.63 83.7273 256.536 83.5511 257.343 83.1989C258.15 82.8466 258.812 82.358 259.329 81.733C259.852 81.108 260.181 80.3864 260.317 79.5682C260.42 78.9432 260.371 78.3892 260.173 77.9062C259.979 77.4233 259.621 76.9972 259.099 76.6278C258.576 76.2585 257.869 75.9318 256.977 75.6477L255.067 75.0341C253.766 74.6136 252.837 74.0511 252.281 73.3466C251.724 72.6364 251.528 71.7784 251.692 70.7727C251.84 69.892 252.19 69.1136 252.741 68.4375C253.298 67.7614 253.999 67.233 254.846 66.8523C255.692 66.4659 256.619 66.2727 257.624 66.2727C258.624 66.2727 259.471 66.4716 260.164 66.8693C260.857 67.267 261.369 67.8153 261.698 68.5142C262.028 69.2131 262.147 70.0114 262.056 70.9091H261.511ZM270.547 70.9091L270.445 71.4545H265.263L265.365 70.9091H270.547ZM267.786 67.7727H268.331L266.115 81.2386C266.024 81.75 266.061 82.1903 266.226 82.5597C266.391 82.9233 266.643 83.2045 266.984 83.4034C267.325 83.5966 267.717 83.6932 268.161 83.6932C268.314 83.6932 268.462 83.679 268.604 83.6506C268.751 83.6165 268.911 83.5739 269.081 83.5227L269.149 84.0341C268.962 84.1023 268.783 84.1534 268.612 84.1875C268.447 84.2216 268.263 84.2386 268.058 84.2386C267.524 84.2386 267.05 84.1165 266.635 83.8722C266.226 83.6278 265.919 83.2812 265.714 82.8324C265.516 82.3835 265.467 81.8523 265.57 81.2386L267.786 67.7727ZM281.788 79.7045L283.254 70.9091H283.8L281.618 84H281.072L281.413 81.9205H281.345C280.936 82.6023 280.342 83.1477 279.564 83.5568C278.791 83.9659 277.953 84.1705 277.05 84.1705C276.175 84.1705 275.433 83.9801 274.825 83.5994C274.217 83.2187 273.78 82.6932 273.513 82.0227C273.246 81.3523 273.186 80.5795 273.334 79.7045L274.8 70.9091H275.345L273.879 79.7045C273.692 80.8636 273.899 81.8068 274.501 82.5341C275.109 83.2614 275.993 83.625 277.152 83.625C277.925 83.625 278.638 83.4574 279.291 83.1222C279.95 82.7869 280.499 82.3239 280.936 81.733C281.379 81.142 281.663 80.4659 281.788 79.7045ZM290.486 84.2727C289.452 84.2727 288.605 83.9773 287.946 83.3864C287.287 82.7898 286.835 81.9801 286.591 80.9574C286.352 79.9347 286.338 78.7784 286.548 77.4886C286.764 76.2045 287.165 75.0511 287.75 74.0284C288.335 73.0057 289.054 72.196 289.906 71.5994C290.764 71.0028 291.702 70.7045 292.719 70.7045C293.418 70.7045 294.034 70.8494 294.568 71.1392C295.108 71.4233 295.548 71.8324 295.889 72.3665C296.236 72.8949 296.463 73.5227 296.571 74.25H296.639L297.918 66.5455H298.463L295.565 84H295.02L295.565 80.7273H295.497C295.139 81.4489 294.702 82.0767 294.185 82.6108C293.673 83.1392 293.102 83.5483 292.472 83.8381C291.847 84.1278 291.185 84.2727 290.486 84.2727ZM290.486 83.7273C291.412 83.7273 292.264 83.4545 293.043 82.9091C293.821 82.358 294.474 81.6136 295.003 80.6761C295.537 79.733 295.901 78.6705 296.094 77.4886C296.293 76.3068 296.293 75.2472 296.094 74.3097C295.901 73.3665 295.52 72.6222 294.952 72.0767C294.384 71.5256 293.639 71.25 292.719 71.25C291.798 71.25 290.949 71.5256 290.17 72.0767C289.392 72.6222 288.733 73.3665 288.193 74.3097C287.659 75.2472 287.293 76.3068 287.094 77.4886C286.901 78.6705 286.901 79.733 287.094 80.6761C287.293 81.6136 287.676 82.358 288.244 82.9091C288.812 83.4545 289.56 83.7273 290.486 83.7273ZM300.67 84L302.852 70.9091H303.398L301.216 84H300.67ZM303.551 68.5227C303.381 68.5227 303.244 68.4631 303.142 68.3438C303.045 68.2244 303.011 68.0795 303.04 67.9091C303.063 67.7898 303.131 67.6818 303.244 67.5852C303.358 67.483 303.483 67.4318 303.619 67.4318C303.79 67.4318 303.923 67.4915 304.02 67.6108C304.122 67.7301 304.159 67.875 304.131 68.0455C304.108 68.1705 304.04 68.2812 303.926 68.3778C303.813 68.4744 303.688 68.5227 303.551 68.5227ZM310.559 84.2727C309.525 84.2727 308.644 83.9744 307.917 83.3778C307.195 82.7812 306.678 81.9659 306.366 80.9318C306.059 79.8977 306.013 78.7273 306.229 77.4205C306.445 76.1477 306.871 75.0057 307.508 73.9943C308.15 72.9773 308.923 72.1761 309.826 71.5909C310.735 71 311.695 70.7045 312.707 70.7045C313.752 70.7045 314.636 71.0057 315.357 71.608C316.085 72.2102 316.602 73.0284 316.908 74.0625C317.221 75.0966 317.275 76.2614 317.07 77.5568C316.854 78.8295 316.425 79.9744 315.783 80.9915C315.141 82.0028 314.366 82.804 313.457 83.3949C312.548 83.9801 311.582 84.2727 310.559 84.2727ZM310.559 83.7273C311.502 83.7273 312.391 83.4545 313.227 82.9091C314.062 82.358 314.772 81.608 315.357 80.6591C315.942 79.7045 316.332 78.625 316.525 77.4205C316.718 76.25 316.681 75.1989 316.414 74.267C316.147 73.3352 315.695 72.5994 315.059 72.0597C314.423 71.5199 313.65 71.25 312.741 71.25C311.809 71.25 310.925 71.5284 310.09 72.0852C309.255 72.6364 308.542 73.3892 307.951 74.3438C307.36 75.2926 306.968 76.3636 306.775 77.5568C306.57 78.7273 306.602 79.7784 306.869 80.7102C307.141 81.642 307.596 82.3778 308.232 82.9176C308.874 83.4574 309.65 83.7273 310.559 83.7273Z" fill="black"/>
<path d="M58.9531 22C59.0554 20.875 58.7827 19.9943 58.135 19.358C57.4872 18.7102 56.3963 18.3864 54.8622 18.3864C53.885 18.3864 53.0668 18.5 52.4077 18.7273C51.76 18.9545 51.2543 19.267 50.8906 19.6648C50.5384 20.0625 50.3168 20.5227 50.2259 21.0455C50.1236 21.4545 50.1293 21.8295 50.2429 22.1705C50.3679 22.5 50.6009 22.8011 50.9418 23.0739C51.294 23.3466 51.7543 23.5909 52.3225 23.8068C52.902 24.0227 53.5895 24.2159 54.385 24.3864L57.1122 25C58.9759 25.4091 60.5384 25.9489 61.7997 26.6193C63.0725 27.2784 64.0725 28.0625 64.7997 28.9716C65.527 29.8807 66.0043 30.8977 66.2315 32.0227C66.4702 33.1477 66.4759 34.375 66.2486 35.7045C65.8622 38 64.9702 39.9432 63.5725 41.5341C62.1747 43.125 60.3509 44.3352 58.1009 45.1648C55.8509 45.9943 53.2486 46.4091 50.294 46.4091C47.2713 46.4091 44.7031 45.9602 42.5895 45.0625C40.4872 44.1534 38.9645 42.767 38.0213 40.9034C37.0895 39.0284 36.8622 36.6364 37.3395 33.7273H46.3395C46.2031 34.7955 46.3168 35.6932 46.6804 36.4205C47.044 37.1477 47.6293 37.6989 48.4361 38.0739C49.2429 38.4489 50.2486 38.6364 51.4531 38.6364C52.4759 38.6364 53.3509 38.5114 54.0781 38.2614C54.8054 38.0114 55.3793 37.6648 55.7997 37.2216C56.2202 36.7784 56.4759 36.2727 56.5668 35.7045C56.6577 35.1818 56.5668 34.7159 56.294 34.3068C56.0213 33.8977 55.527 33.5284 54.8111 33.1989C54.0952 32.8693 53.1122 32.5682 51.8622 32.2955L48.5213 31.5455C45.5554 30.8636 43.3168 29.7386 41.8054 28.1705C40.294 26.6023 39.76 24.4545 40.2031 21.7273C40.5668 19.5 41.4815 17.5568 42.9475 15.8977C44.4247 14.2273 46.2997 12.9318 48.5725 12.0114C50.8565 11.0795 53.385 10.6136 56.1577 10.6136C58.9759 10.6136 61.3338 11.0852 63.2315 12.0284C65.1406 12.9716 66.51 14.2955 67.3395 16C68.1804 17.7045 68.4077 19.7045 68.0213 22H58.9531ZM68.2855 46L72.6492 19.8182H82.0583L77.6946 46H68.2855ZM77.7628 17.0909C76.4901 17.0909 75.4617 16.6705 74.6776 15.8295C73.8935 14.9773 73.6037 13.9659 73.8083 12.7955C74.0128 11.6023 74.6378 10.5909 75.6833 9.76136C76.7287 8.92045 77.8878 8.5 79.1605 8.5C80.4446 8.5 81.4673 8.92045 82.2287 9.76136C82.9901 10.5909 83.2742 11.6023 83.081 12.7955C82.8992 13.9659 82.2855 14.9773 81.2401 15.8295C80.206 16.6705 79.0469 17.0909 77.7628 17.0909ZM94.9659 19.8182L97.4205 27.9318L102.807 19.8182H112.148L102.943 32.9091L108.125 46H98.8523L95.7841 37.6818L90.125 46H80.7159L90.3296 32.9091L85.5568 19.8182H94.9659ZM129.624 46H119.396L136.715 11.0909H149.669L155.396 46H145.169L141.76 20.7045H141.487L129.624 46ZM130.033 32.2273H149.26L148.033 39.3182H128.805L130.033 32.2273ZM170.827 31.2727L168.372 46H158.963L163.327 19.8182H172.259L171.44 24.7955H171.713C172.543 23.125 173.753 21.8239 175.344 20.892C176.946 19.9489 178.713 19.4773 180.645 19.4773C182.497 19.4773 184.037 19.8977 185.264 20.7386C186.491 21.5795 187.361 22.7386 187.872 24.2159C188.384 25.6932 188.474 27.3864 188.145 29.2955L185.349 46H175.94L178.395 31.2727C178.611 29.9773 178.452 28.9602 177.918 28.2216C177.395 27.483 176.531 27.1136 175.327 27.1136C174.565 27.1136 173.866 27.2841 173.23 27.625C172.605 27.9545 172.082 28.4318 171.662 29.0568C171.253 29.6705 170.974 30.4091 170.827 31.2727ZM189.926 46L194.29 19.8182H203.699L199.335 46H189.926ZM199.403 17.0909C198.131 17.0909 197.102 16.6705 196.318 15.8295C195.534 14.9773 195.244 13.9659 195.449 12.7955C195.653 11.6023 196.278 10.5909 197.324 9.76136C198.369 8.92045 199.528 8.5 200.801 8.5C202.085 8.5 203.108 8.92045 203.869 9.76136C204.631 10.5909 204.915 11.6023 204.722 12.7955C204.54 13.9659 203.926 14.9773 202.881 15.8295C201.847 16.6705 200.688 17.0909 199.403 17.0909ZM204.197 46L208.561 19.8182H217.493L216.675 24.7955H216.947C217.754 23.1591 218.896 21.8636 220.374 20.9091C221.851 19.9545 223.504 19.4773 225.334 19.4773C227.163 19.4773 228.663 19.9659 229.834 20.9432C231.004 21.9091 231.595 23.1932 231.607 24.7955H231.879C232.584 23.1932 233.737 21.9091 235.34 20.9432C236.942 19.9659 238.72 19.4773 240.675 19.4773C243.163 19.4773 245.055 20.2841 246.351 21.8977C247.658 23.5114 248.084 25.6591 247.629 28.3409L244.697 46H235.288L237.879 30.7273C238.038 29.5795 237.879 28.6818 237.402 28.0341C236.925 27.375 236.197 27.0455 235.22 27.0455C234.254 27.0455 233.436 27.375 232.766 28.0341C232.107 28.6818 231.697 29.5795 231.538 30.7273L228.947 46H219.947L222.538 30.7273C222.697 29.5795 222.538 28.6818 222.061 28.0341C221.584 27.375 220.857 27.0455 219.879 27.0455C219.243 27.0455 218.663 27.1932 218.141 27.4886C217.629 27.7841 217.203 28.2102 216.862 28.767C216.533 29.3125 216.311 29.9659 216.197 30.7273L213.607 46H204.197ZM256.497 46.4091C254.838 46.4091 253.412 46.1364 252.219 45.5909C251.037 45.0341 250.173 44.1932 249.628 43.0682C249.094 41.9318 248.974 40.5 249.27 38.7727C249.509 37.3409 249.957 36.1193 250.616 35.108C251.276 34.0966 252.094 33.267 253.071 32.6193C254.048 31.9716 255.145 31.4773 256.361 31.1364C257.588 30.7841 258.884 30.5568 260.247 30.4545C261.724 30.3409 262.923 30.1989 263.844 30.0284C264.764 29.858 265.452 29.625 265.906 29.3295C266.361 29.0341 266.634 28.6364 266.724 28.1364V28.0682C266.827 27.3864 266.645 26.8636 266.179 26.5C265.724 26.1364 265.088 25.9545 264.27 25.9545C263.384 25.9545 262.616 26.1477 261.969 26.5341C261.332 26.9205 260.895 27.5227 260.656 28.3409H251.997C252.361 26.75 253.105 25.2841 254.23 23.9432C255.366 22.5909 256.872 21.5114 258.747 20.7045C260.634 19.8864 262.884 19.4773 265.497 19.4773C267.361 19.4773 268.997 19.6989 270.406 20.142C271.815 20.5739 272.98 21.1818 273.901 21.9659C274.832 22.7386 275.486 23.6477 275.861 24.6932C276.247 25.7273 276.338 26.8523 276.134 28.0682L273.134 46H264.338L264.952 42.3182H264.747C264.065 43.2955 263.298 44.0852 262.446 44.6875C261.605 45.2898 260.685 45.7273 259.685 46C258.696 46.2727 257.634 46.4091 256.497 46.4091ZM260.588 40.4773C261.293 40.4773 261.986 40.3295 262.668 40.0341C263.349 39.7386 263.935 39.3125 264.423 38.7557C264.912 38.1989 265.224 37.5227 265.361 36.7273L265.702 34.5455C265.452 34.6477 265.173 34.7443 264.866 34.8352C264.571 34.9148 264.259 34.9943 263.929 35.0739C263.611 35.1534 263.27 35.2273 262.906 35.2955C262.554 35.3636 262.19 35.4318 261.815 35.5C261.065 35.6136 260.435 35.8011 259.923 36.0625C259.412 36.3125 259.014 36.625 258.73 37C258.446 37.3636 258.27 37.7727 258.202 38.2273C258.099 38.9432 258.264 39.5 258.696 39.8977C259.139 40.2841 259.77 40.4773 260.588 40.4773ZM297.607 19.8182L296.447 26.6364H279.197L280.357 19.8182H297.607ZM284.72 13.5455H294.129L290.141 37.5795C290.084 37.9432 290.095 38.25 290.175 38.5C290.254 38.7386 290.413 38.9205 290.652 39.0455C290.902 39.1591 291.232 39.2159 291.641 39.2159C291.913 39.2159 292.249 39.1818 292.646 39.1136C293.044 39.0341 293.345 38.9773 293.55 38.9432L293.822 45.5568C293.345 45.6932 292.703 45.8466 291.896 46.017C291.101 46.1989 290.175 46.3182 289.118 46.375C286.913 46.4773 285.118 46.2443 283.732 45.6761C282.357 45.108 281.402 44.2216 280.868 43.017C280.345 41.8011 280.254 40.2841 280.595 38.4659L284.72 13.5455ZM297.082 46L301.446 19.8182H310.855L306.492 46H297.082ZM306.56 17.0909C305.287 17.0909 304.259 16.6705 303.474 15.8295C302.69 14.9773 302.401 13.9659 302.605 12.7955C302.81 11.6023 303.435 10.5909 304.48 9.76136C305.526 8.92045 306.685 8.5 307.957 8.5C309.242 8.5 310.264 8.92045 311.026 9.76136C311.787 10.5909 312.071 11.6023 311.878 12.7955C311.696 13.9659 311.082 14.9773 310.037 15.8295C309.003 16.6705 307.844 17.0909 306.56 17.0909ZM323.831 46.4773C320.99 46.4773 318.649 45.9148 316.808 44.7898C314.979 43.6534 313.695 42.0739 312.956 40.0511C312.217 38.017 312.07 35.6591 312.513 32.9773C312.956 30.2955 313.882 27.9432 315.291 25.9205C316.7 23.8864 318.513 22.3068 320.729 21.1818C322.945 20.0455 325.479 19.4773 328.331 19.4773C331.161 19.4773 333.49 20.0455 335.32 21.1818C337.161 22.3068 338.45 23.8864 339.189 25.9205C339.939 27.9432 340.092 30.2955 339.649 32.9773C339.206 35.6591 338.274 38.017 336.854 40.0511C335.433 42.0739 333.615 43.6534 331.399 44.7898C329.195 45.9148 326.672 46.4773 323.831 46.4773ZM324.99 39.5227C325.808 39.5227 326.553 39.2557 327.223 38.7216C327.905 38.1875 328.484 37.4261 328.962 36.4375C329.45 35.4489 329.808 34.2727 330.036 32.9091C330.263 31.5341 330.297 30.358 330.138 29.3807C329.979 28.392 329.649 27.6307 329.149 27.0966C328.649 26.5625 327.99 26.2955 327.172 26.2955C326.354 26.2955 325.604 26.5625 324.922 27.0966C324.24 27.6307 323.661 28.392 323.183 29.3807C322.706 30.358 322.354 31.5341 322.126 32.9091C321.899 34.2727 321.859 35.4489 322.007 36.4375C322.166 37.4261 322.496 38.1875 322.996 38.7216C323.507 39.2557 324.172 39.5227 324.99 39.5227ZM353.217 31.2727L350.763 46H341.354L345.717 19.8182H354.649L353.831 24.7955H354.104C354.933 23.125 356.143 21.8239 357.734 20.892C359.337 19.9489 361.104 19.4773 363.036 19.4773C364.888 19.4773 366.428 19.8977 367.655 20.7386C368.882 21.5795 369.751 22.7386 370.263 24.2159C370.774 25.6932 370.865 27.3864 370.536 29.2955L367.74 46H358.331L360.786 31.2727C361.001 29.9773 360.842 28.9602 360.308 28.2216C359.786 27.483 358.922 27.1136 357.717 27.1136C356.956 27.1136 356.257 27.2841 355.621 27.625C354.996 27.9545 354.473 28.4318 354.053 29.0568C353.643 29.6705 353.365 30.4091 353.217 31.2727ZM399.112 28.3409H390.658C390.703 27.7955 390.607 27.3295 390.368 26.9432C390.129 26.5568 389.794 26.2614 389.362 26.0568C388.942 25.8523 388.465 25.75 387.93 25.75C386.999 25.75 386.152 25.9602 385.391 26.3807C384.629 26.7898 384.203 27.3295 384.112 28C384.055 28.2614 384.141 28.5057 384.368 28.733C384.595 28.9602 385.192 29.1705 386.158 29.3636L391.34 30.3182C393.93 30.7955 395.817 31.6648 396.999 32.9261C398.192 34.1761 398.624 35.8295 398.294 37.8864C397.987 39.6705 397.203 41.2045 395.942 42.4886C394.68 43.7727 393.078 44.7614 391.135 45.4545C389.203 46.1364 387.067 46.4773 384.726 46.4773C380.601 46.4773 377.51 45.6534 375.453 44.0057C373.408 42.358 372.476 40.2045 372.658 37.5455H381.794C381.817 38.3977 382.101 39.0398 382.646 39.4716C383.203 39.892 383.942 40.1136 384.862 40.1364C385.862 40.1705 386.737 39.9716 387.487 39.5398C388.237 39.0966 388.658 38.5455 388.749 37.8864C388.783 37.5114 388.618 37.2273 388.254 37.0341C387.902 36.8409 387.226 36.6477 386.226 36.4545L381.726 35.6364C379.135 35.1705 377.249 34.2386 376.067 32.8409C374.885 31.4318 374.476 29.6364 374.84 27.4545C375.135 25.7159 375.84 24.2557 376.953 23.0739C378.078 21.892 379.555 21 381.385 20.3977C383.215 19.7841 385.328 19.4773 387.726 19.4773C391.646 19.4773 394.612 20.267 396.624 21.8466C398.646 23.4148 399.476 25.5795 399.112 28.3409Z" fill="#120082"/>
</svg>
