<svg width="100" height="111" viewBox="0 0 100 111" fill="none" xmlns="http://www.w3.org/2000/svg">
<circle cx="50" cy="54.4738" r="45" stroke="#606060" stroke-width="10"/>
<path d="M50.7491 83.7457C47.5708 83.7457 44.5523 83.2486 41.6937 82.2543C38.8528 81.2422 36.3315 79.6531 34.1298 77.4869C31.928 75.3207 30.1969 72.4975 28.9362 69.0174C27.6933 65.5373 27.0807 61.3203 27.0985 56.3665C27.1163 51.9453 27.6844 47.968 28.803 44.4347C29.9394 40.9013 31.5463 37.8917 33.6237 35.4059C35.7189 32.9201 38.2224 31.0202 41.1344 29.7063C44.0463 28.3746 47.2867 27.7088 50.8556 27.7088C54.8684 27.7088 58.4018 28.4812 61.4557 30.0259C64.5097 31.5707 66.9423 33.6392 68.7533 36.2315C70.5822 38.8061 71.6475 41.647 71.9494 44.7543H57.3542C57.0168 43.2095 56.2356 42.082 55.0104 41.3718C53.803 40.6438 52.4181 40.2798 50.8556 40.2798C47.7484 40.2798 45.4668 41.6293 44.0108 44.3281C42.5726 47.027 41.8357 50.5781 41.8002 54.9815H42.1198C42.8123 53.3125 43.8599 51.8832 45.2626 50.6935C46.6653 49.5039 48.2988 48.5895 50.1631 47.9503C52.0275 47.3111 53.9984 46.9915 56.0758 46.9915C59.3783 46.9915 62.2636 47.7372 64.7317 49.2287C67.2175 50.7202 69.1528 52.7621 70.5378 55.3544C71.9227 57.9467 72.6063 60.9119 72.5886 64.25C72.6063 68.1562 71.683 71.5742 69.8187 74.5039C67.9721 77.4336 65.4064 79.7063 62.1216 81.3221C58.8368 82.9379 55.0459 83.7457 50.7491 83.7457ZM50.6425 72.5597C52.1163 72.5597 53.4213 72.2223 54.5577 71.5476C55.7118 70.8729 56.6084 69.9496 57.2476 68.7777C57.9046 67.6058 58.2242 66.2741 58.2065 64.7827C58.2242 63.2734 57.9046 61.9418 57.2476 60.7876C56.6084 59.6158 55.7118 58.6925 54.5577 58.0178C53.4213 57.343 52.1163 57.0057 50.6425 57.0057C49.5594 57.0057 48.5562 57.201 47.6329 57.5916C46.7274 57.9645 45.9373 58.506 45.2626 59.2163C44.5878 59.9087 44.0552 60.7344 43.6646 61.6932C43.2917 62.6342 43.0964 63.6641 43.0786 64.7827C43.0964 66.2741 43.4337 67.6058 44.0907 68.7777C44.7476 69.9496 45.6443 70.8729 46.7807 71.5476C47.917 72.2223 49.2043 72.5597 50.6425 72.5597Z" fill="#606060"/>
</svg>
