<svg width="528" height="268" viewBox="0 0 528 268" fill="none" xmlns="http://www.w3.org/2000/svg">
<path d="M39.7315 124C39.8338 122.875 39.5611 121.994 38.9134 121.358C38.2656 120.71 37.1747 120.386 35.6406 120.386C34.6634 120.386 33.8452 120.5 33.1861 120.727C32.5384 120.955 32.0327 121.267 31.669 121.665C31.3168 122.062 31.0952 122.523 31.0043 123.045C30.902 123.455 30.9077 123.83 31.0213 124.17C31.1463 124.5 31.3793 124.801 31.7202 125.074C32.0724 125.347 32.5327 125.591 33.1009 125.807C33.6804 126.023 34.3679 126.216 35.1634 126.386L37.8906 127C39.7543 127.409 41.3168 127.949 42.5781 128.619C43.8509 129.278 44.8509 130.062 45.5781 130.972C46.3054 131.881 46.7827 132.898 47.0099 134.023C47.2486 135.148 47.2543 136.375 47.027 137.705C46.6406 140 45.7486 141.943 44.3509 143.534C42.9531 145.125 41.1293 146.335 38.8793 147.165C36.6293 147.994 34.027 148.409 31.0724 148.409C28.0497 148.409 25.4815 147.96 23.3679 147.062C21.2656 146.153 19.7429 144.767 18.7997 142.903C17.8679 141.028 17.6406 138.636 18.1179 135.727H27.1179C26.9815 136.795 27.0952 137.693 27.4588 138.42C27.8224 139.148 28.4077 139.699 29.2145 140.074C30.0213 140.449 31.027 140.636 32.2315 140.636C33.2543 140.636 34.1293 140.511 34.8565 140.261C35.5838 140.011 36.1577 139.665 36.5781 139.222C36.9986 138.778 37.2543 138.273 37.3452 137.705C37.4361 137.182 37.3452 136.716 37.0724 136.307C36.7997 135.898 36.3054 135.528 35.5895 135.199C34.8736 134.869 33.8906 134.568 32.6406 134.295L29.2997 133.545C26.3338 132.864 24.0952 131.739 22.5838 130.17C21.0724 128.602 20.5384 126.455 20.9815 123.727C21.3452 121.5 22.2599 119.557 23.7259 117.898C25.2031 116.227 27.0781 114.932 29.3509 114.011C31.6349 113.08 34.1634 112.614 36.9361 112.614C39.7543 112.614 42.1122 113.085 44.0099 114.028C45.919 114.972 47.2884 116.295 48.1179 118C48.9588 119.705 49.1861 121.705 48.7997 124H39.7315ZM49.0639 148L53.4276 121.818H62.8366L58.473 148H49.0639ZM58.5412 119.091C57.2685 119.091 56.2401 118.67 55.456 117.83C54.6719 116.977 54.3821 115.966 54.5866 114.795C54.7912 113.602 55.4162 112.591 56.4616 111.761C57.5071 110.92 58.6662 110.5 59.9389 110.5C61.223 110.5 62.2457 110.92 63.0071 111.761C63.7685 112.591 64.0526 113.602 63.8594 114.795C63.6776 115.966 63.0639 116.977 62.0185 117.83C60.9844 118.67 59.8253 119.091 58.5412 119.091ZM75.7443 121.818L78.1989 129.932L83.5852 121.818H92.9261L83.7216 134.909L88.9034 148H79.6307L76.5625 139.682L70.9034 148H61.4943L71.108 134.909L66.3352 121.818H75.7443ZM110.402 148H100.175L117.493 113.091H130.447L136.175 148H125.947L122.538 122.705H122.266L110.402 148ZM110.811 134.227H130.038L128.811 141.318H109.584L110.811 134.227ZM151.605 133.273L149.151 148H139.741L144.105 121.818H153.037L152.219 126.795H152.491C153.321 125.125 154.531 123.824 156.122 122.892C157.724 121.949 159.491 121.477 161.423 121.477C163.276 121.477 164.815 121.898 166.043 122.739C167.27 123.58 168.139 124.739 168.651 126.216C169.162 127.693 169.253 129.386 168.923 131.295L166.128 148H156.719L159.173 133.273C159.389 131.977 159.23 130.96 158.696 130.222C158.173 129.483 157.31 129.114 156.105 129.114C155.344 129.114 154.645 129.284 154.009 129.625C153.384 129.955 152.861 130.432 152.44 131.057C152.031 131.67 151.753 132.409 151.605 133.273ZM170.705 148L175.068 121.818H184.477L180.114 148H170.705ZM180.182 119.091C178.909 119.091 177.881 118.67 177.097 117.83C176.313 116.977 176.023 115.966 176.227 114.795C176.432 113.602 177.057 112.591 178.102 111.761C179.148 110.92 180.307 110.5 181.58 110.5C182.864 110.5 183.886 110.92 184.648 111.761C185.409 112.591 185.693 113.602 185.5 114.795C185.318 115.966 184.705 116.977 183.659 117.83C182.625 118.67 181.466 119.091 180.182 119.091ZM184.976 148L189.339 121.818H198.271L197.453 126.795H197.726C198.533 125.159 199.675 123.864 201.152 122.909C202.629 121.955 204.283 121.477 206.112 121.477C207.942 121.477 209.442 121.966 210.612 122.943C211.783 123.909 212.374 125.193 212.385 126.795H212.658C213.362 125.193 214.516 123.909 216.118 122.943C217.72 121.966 219.499 121.477 221.453 121.477C223.942 121.477 225.834 122.284 227.129 123.898C228.436 125.511 228.862 127.659 228.408 130.341L225.476 148H216.067L218.658 132.727C218.817 131.58 218.658 130.682 218.18 130.034C217.703 129.375 216.976 129.045 215.999 129.045C215.033 129.045 214.214 129.375 213.544 130.034C212.885 130.682 212.476 131.58 212.317 132.727L209.726 148H200.726L203.317 132.727C203.476 131.58 203.317 130.682 202.839 130.034C202.362 129.375 201.635 129.045 200.658 129.045C200.021 129.045 199.442 129.193 198.919 129.489C198.408 129.784 197.982 130.21 197.641 130.767C197.311 131.312 197.089 131.966 196.976 132.727L194.385 148H184.976ZM237.276 148.409C235.616 148.409 234.19 148.136 232.997 147.591C231.815 147.034 230.952 146.193 230.406 145.068C229.872 143.932 229.753 142.5 230.048 140.773C230.287 139.341 230.736 138.119 231.395 137.108C232.054 136.097 232.872 135.267 233.849 134.619C234.827 133.972 235.923 133.477 237.139 133.136C238.366 132.784 239.662 132.557 241.026 132.455C242.503 132.341 243.702 132.199 244.622 132.028C245.543 131.858 246.23 131.625 246.685 131.33C247.139 131.034 247.412 130.636 247.503 130.136V130.068C247.605 129.386 247.423 128.864 246.957 128.5C246.503 128.136 245.866 127.955 245.048 127.955C244.162 127.955 243.395 128.148 242.747 128.534C242.111 128.92 241.673 129.523 241.435 130.341H232.776C233.139 128.75 233.884 127.284 235.009 125.943C236.145 124.591 237.651 123.511 239.526 122.705C241.412 121.886 243.662 121.477 246.276 121.477C248.139 121.477 249.776 121.699 251.185 122.142C252.594 122.574 253.759 123.182 254.679 123.966C255.611 124.739 256.264 125.648 256.639 126.693C257.026 127.727 257.116 128.852 256.912 130.068L253.912 148H245.116L245.73 144.318H245.526C244.844 145.295 244.077 146.085 243.224 146.688C242.384 147.29 241.463 147.727 240.463 148C239.474 148.273 238.412 148.409 237.276 148.409ZM241.366 142.477C242.071 142.477 242.764 142.33 243.446 142.034C244.128 141.739 244.713 141.312 245.202 140.756C245.69 140.199 246.003 139.523 246.139 138.727L246.48 136.545C246.23 136.648 245.952 136.744 245.645 136.835C245.349 136.915 245.037 136.994 244.707 137.074C244.389 137.153 244.048 137.227 243.685 137.295C243.332 137.364 242.969 137.432 242.594 137.5C241.844 137.614 241.213 137.801 240.702 138.062C240.19 138.312 239.793 138.625 239.509 139C239.224 139.364 239.048 139.773 238.98 140.227C238.878 140.943 239.043 141.5 239.474 141.898C239.918 142.284 240.548 142.477 241.366 142.477ZM278.385 121.818L277.226 128.636H259.976L261.135 121.818H278.385ZM265.499 115.545H274.908L270.919 139.58C270.862 139.943 270.874 140.25 270.953 140.5C271.033 140.739 271.192 140.92 271.43 141.045C271.68 141.159 272.01 141.216 272.419 141.216C272.692 141.216 273.027 141.182 273.425 141.114C273.822 141.034 274.124 140.977 274.328 140.943L274.601 147.557C274.124 147.693 273.482 147.847 272.675 148.017C271.879 148.199 270.953 148.318 269.896 148.375C267.692 148.477 265.896 148.244 264.51 147.676C263.135 147.108 262.18 146.222 261.646 145.017C261.124 143.801 261.033 142.284 261.374 140.466L265.499 115.545ZM277.861 148L282.224 121.818H291.634L287.27 148H277.861ZM287.338 119.091C286.065 119.091 285.037 118.67 284.253 117.83C283.469 116.977 283.179 115.966 283.384 114.795C283.588 113.602 284.213 112.591 285.259 111.761C286.304 110.92 287.463 110.5 288.736 110.5C290.02 110.5 291.043 110.92 291.804 111.761C292.565 112.591 292.849 113.602 292.656 114.795C292.474 115.966 291.861 116.977 290.815 117.83C289.781 118.67 288.622 119.091 287.338 119.091ZM304.609 148.477C301.768 148.477 299.428 147.915 297.587 146.79C295.757 145.653 294.473 144.074 293.734 142.051C292.996 140.017 292.848 137.659 293.291 134.977C293.734 132.295 294.661 129.943 296.07 127.92C297.479 125.886 299.291 124.307 301.507 123.182C303.723 122.045 306.257 121.477 309.109 121.477C311.939 121.477 314.268 122.045 316.098 123.182C317.939 124.307 319.229 125.886 319.967 127.92C320.717 129.943 320.871 132.295 320.428 134.977C319.984 137.659 319.053 140.017 317.632 142.051C316.212 144.074 314.393 145.653 312.178 146.79C309.973 147.915 307.45 148.477 304.609 148.477ZM305.768 141.523C306.587 141.523 307.331 141.256 308.001 140.722C308.683 140.187 309.263 139.426 309.74 138.438C310.229 137.449 310.587 136.273 310.814 134.909C311.041 133.534 311.075 132.358 310.916 131.381C310.757 130.392 310.428 129.631 309.928 129.097C309.428 128.562 308.768 128.295 307.95 128.295C307.132 128.295 306.382 128.562 305.7 129.097C305.018 129.631 304.439 130.392 303.962 131.381C303.484 132.358 303.132 133.534 302.905 134.909C302.678 136.273 302.638 137.449 302.786 138.438C302.945 139.426 303.274 140.187 303.774 140.722C304.286 141.256 304.95 141.523 305.768 141.523ZM333.996 133.273L331.541 148H322.132L326.496 121.818H335.428L334.609 126.795H334.882C335.712 125.125 336.922 123.824 338.513 122.892C340.115 121.949 341.882 121.477 343.814 121.477C345.666 121.477 347.206 121.898 348.433 122.739C349.661 123.58 350.53 124.739 351.041 126.216C351.553 127.693 351.643 129.386 351.314 131.295L348.518 148H339.109L341.564 133.273C341.78 131.977 341.621 130.96 341.087 130.222C340.564 129.483 339.7 129.114 338.496 129.114C337.734 129.114 337.036 129.284 336.399 129.625C335.774 129.955 335.251 130.432 334.831 131.057C334.422 131.67 334.143 132.409 333.996 133.273ZM379.891 130.341H371.436C371.482 129.795 371.385 129.33 371.146 128.943C370.908 128.557 370.572 128.261 370.141 128.057C369.72 127.852 369.243 127.75 368.709 127.75C367.777 127.75 366.93 127.96 366.169 128.381C365.408 128.79 364.982 129.33 364.891 130C364.834 130.261 364.919 130.506 365.146 130.733C365.374 130.96 365.97 131.17 366.936 131.364L372.118 132.318C374.709 132.795 376.595 133.665 377.777 134.926C378.97 136.176 379.402 137.83 379.072 139.886C378.766 141.67 377.982 143.205 376.72 144.489C375.459 145.773 373.857 146.761 371.913 147.455C369.982 148.136 367.845 148.477 365.504 148.477C361.379 148.477 358.288 147.653 356.232 146.006C354.186 144.358 353.254 142.205 353.436 139.545H362.572C362.595 140.398 362.879 141.04 363.425 141.472C363.982 141.892 364.72 142.114 365.641 142.136C366.641 142.17 367.516 141.972 368.266 141.54C369.016 141.097 369.436 140.545 369.527 139.886C369.561 139.511 369.396 139.227 369.033 139.034C368.68 138.841 368.004 138.648 367.004 138.455L362.504 137.636C359.913 137.17 358.027 136.239 356.845 134.841C355.663 133.432 355.254 131.636 355.618 129.455C355.913 127.716 356.618 126.256 357.732 125.074C358.857 123.892 360.334 123 362.163 122.398C363.993 121.784 366.107 121.477 368.504 121.477C372.425 121.477 375.391 122.267 377.402 123.847C379.425 125.415 380.254 127.58 379.891 130.341Z" fill="#120082"/>
<path d="M441 215.187C434.229 215.187 428.188 213.651 422.875 210.578C417.615 207.505 413.37 202.896 410.141 196.75C406.911 190.552 404.88 182.766 404.047 173.391C403.266 164.016 403.917 153.052 406 140.5C407.719 129.719 410.193 119.042 413.422 108.469C416.651 97.8437 420.818 88.1823 425.922 79.4844C431.026 70.7865 437.172 63.8333 444.359 58.625C451.599 53.4167 460.063 50.8125 469.75 50.8125C477.667 50.8125 484.281 52.6094 489.594 56.2031C494.906 59.7448 498.76 64.6927 501.156 71.0469C503.552 77.349 504.333 84.6667 503.5 93H498.5C499.438 82.0625 497.536 73.1302 492.797 66.2031C488.109 59.276 480.531 55.8125 470.063 55.8125C455.375 55.8125 442.927 63.2604 432.719 78.1563C422.51 93.0521 415.063 114.563 410.375 142.687H411C413.604 137.375 417.302 132.661 422.094 128.547C426.938 124.38 432.354 121.125 438.344 118.781C444.385 116.385 450.479 115.187 456.625 115.187C465.063 115.187 472.406 117.375 478.656 121.75C484.906 126.125 489.49 132.089 492.406 139.641C495.323 147.193 496 155.708 494.438 165.187C492.875 174.042 489.568 182.271 484.516 189.875C479.464 197.479 473.188 203.599 465.687 208.234C458.188 212.87 449.958 215.187 441 215.187ZM441 210.187C448.708 210.187 455.974 208.156 462.797 204.094C469.62 200.031 475.401 194.589 480.141 187.766C484.88 180.943 487.979 173.417 489.438 165.187C490.792 156.75 490.245 149.146 487.797 142.375C485.401 135.552 481.469 130.161 476 126.203C470.583 122.193 464.021 120.188 456.313 120.188C450.219 120.188 444.307 121.464 438.578 124.016C432.901 126.516 427.797 129.979 423.266 134.406C418.786 138.833 415.245 143.885 412.641 149.562C410.036 155.187 408.76 161.125 408.813 167.375C409.021 176.75 410.401 184.615 412.953 190.969C415.557 197.323 419.203 202.115 423.891 205.344C428.63 208.573 434.333 210.187 441 210.187Z" fill="#BABABA"/>
<line x1="15.0014" y1="167.5" x2="373.001" y2="168.5" stroke="#BABABA"/>
<path d="M88.3068 198.239C87.3295 198.239 86.4801 198.04 85.7585 197.642C85.0426 197.244 84.5114 196.699 84.1648 196.006C83.8239 195.312 83.7273 194.523 83.875 193.636H84.4205C84.2955 194.42 84.3778 195.119 84.6676 195.733C84.9631 196.341 85.4233 196.821 86.0483 197.173C86.679 197.52 87.4318 197.693 88.3068 197.693C89.2273 197.693 90.0739 197.503 90.8466 197.122C91.625 196.736 92.267 196.224 92.7727 195.588C93.2841 194.946 93.6023 194.239 93.7273 193.466C93.8636 192.625 93.7614 191.892 93.4205 191.267C93.0852 190.636 92.5597 190.148 91.8438 189.801C91.1335 189.449 90.2841 189.273 89.2955 189.273H89.0227L89.0909 188.727H89.3636C90.2386 188.727 91.054 188.565 91.8097 188.241C92.5653 187.918 93.196 187.46 93.7017 186.869C94.2074 186.278 94.5227 185.58 94.6477 184.773C94.7727 184.023 94.7216 183.352 94.4943 182.761C94.267 182.17 93.8807 181.705 93.3352 181.364C92.7898 181.023 92.1023 180.852 91.2727 180.852C90.4659 180.852 89.7074 181.026 88.9972 181.372C88.2869 181.713 87.6903 182.19 87.2074 182.804C86.7244 183.412 86.4205 184.114 86.2955 184.909H85.75C85.8977 184.011 86.233 183.216 86.7557 182.523C87.2784 181.83 87.929 181.287 88.7074 180.895C89.4858 180.503 90.3295 180.307 91.2386 180.307C92.1591 180.307 92.9403 180.503 93.5824 180.895C94.2301 181.281 94.696 181.812 94.9801 182.489C95.2699 183.159 95.3409 183.92 95.1932 184.773C95.0398 185.795 94.608 186.673 93.8977 187.406C93.1875 188.134 92.3125 188.642 91.2727 188.932V189C92.3636 189.29 93.1818 189.83 93.7273 190.619C94.2784 191.409 94.4602 192.358 94.2727 193.466C94.125 194.364 93.7727 195.173 93.2159 195.895C92.6591 196.616 91.9574 197.187 91.1108 197.608C90.2642 198.028 89.3295 198.239 88.3068 198.239ZM102.923 198H98.3551L101.253 180.545H106.264C107.866 180.545 109.185 180.892 110.219 181.585C111.253 182.273 111.969 183.264 112.366 184.56C112.764 185.849 112.81 187.398 112.503 189.205C112.185 191.057 111.594 192.639 110.73 193.952C109.872 195.264 108.781 196.267 107.457 196.96C106.139 197.653 104.628 198 102.923 198ZM98.9943 197.455H103.026C104.611 197.455 106.023 197.119 107.261 196.449C108.506 195.778 109.531 194.827 110.338 193.594C111.145 192.361 111.685 190.898 111.957 189.205C112.236 187.477 112.202 186.011 111.855 184.807C111.509 183.597 110.858 182.676 109.903 182.045C108.955 181.409 107.707 181.091 106.162 181.091H101.705L98.9943 197.455ZM120.898 198H120.318L129.455 180.545H130.205L133.545 198H132.966L129.761 181.227H129.693L120.898 198ZM123.966 191.557H132.08L131.977 192.102H123.864L123.966 191.557ZM138.653 189.205L137.187 198H136.641L138.823 184.909H139.369L139.028 186.989H139.096C139.505 186.307 140.096 185.761 140.869 185.352C141.647 184.943 142.488 184.739 143.391 184.739C144.266 184.739 145.008 184.929 145.616 185.31C146.224 185.69 146.661 186.216 146.928 186.886C147.195 187.557 147.255 188.33 147.107 189.205L145.641 198H145.096L146.562 189.205C146.749 188.045 146.55 187.102 145.965 186.375C145.386 185.648 144.516 185.284 143.357 185.284C142.585 185.284 141.863 185.452 141.192 185.787C140.528 186.122 139.968 186.585 139.513 187.176C139.065 187.767 138.778 188.443 138.653 189.205ZM150.35 198L152.532 184.909H153.077L150.896 198H150.35ZM153.231 182.523C153.06 182.523 152.924 182.463 152.822 182.344C152.725 182.224 152.691 182.08 152.719 181.909C152.742 181.79 152.81 181.682 152.924 181.585C153.038 181.483 153.163 181.432 153.299 181.432C153.469 181.432 153.603 181.491 153.7 181.611C153.802 181.73 153.839 181.875 153.81 182.045C153.788 182.17 153.719 182.281 153.606 182.378C153.492 182.474 153.367 182.523 153.231 182.523ZM155.602 198L157.784 184.909H158.33L157.989 186.852H158.057C158.415 186.222 158.935 185.713 159.616 185.327C160.298 184.935 161.074 184.739 161.943 184.739C162.932 184.739 163.676 184.983 164.176 185.472C164.676 185.96 164.977 186.614 165.08 187.432H165.148C165.489 186.614 166.031 185.96 166.776 185.472C167.52 184.983 168.386 184.739 169.375 184.739C170.688 184.739 171.588 185.156 172.077 185.991C172.565 186.821 172.699 187.892 172.477 189.205L171.011 198H170.466L171.932 189.205C172.119 188.045 172.023 187.102 171.642 186.375C171.267 185.648 170.5 185.284 169.341 185.284C168.182 185.284 167.222 185.653 166.46 186.392C165.705 187.125 165.233 188.062 165.045 189.205L163.58 198H163.034L164.5 189.205C164.688 188.045 164.591 187.102 164.21 186.375C163.835 185.648 163.068 185.284 161.909 185.284C161.136 185.284 160.449 185.452 159.847 185.787C159.25 186.122 158.759 186.585 158.372 187.176C157.991 187.767 157.739 188.443 157.614 189.205L156.148 198H155.602ZM178.88 198.273C178.164 198.273 177.528 198.125 176.971 197.83C176.42 197.534 176.005 197.102 175.727 196.534C175.454 195.966 175.38 195.273 175.505 194.455C175.585 194.011 175.727 193.597 175.931 193.21C176.141 192.818 176.451 192.463 176.86 192.145C177.275 191.827 177.823 191.554 178.505 191.327C179.187 191.099 180.039 190.926 181.062 190.807C181.675 190.739 182.258 190.659 182.809 190.568C183.36 190.477 183.817 190.341 184.181 190.159C184.545 189.977 184.755 189.716 184.812 189.375L184.948 188.591C185.119 187.585 184.931 186.778 184.386 186.17C183.84 185.557 183.005 185.25 181.88 185.25C180.96 185.25 180.104 185.457 179.315 185.872C178.531 186.287 177.942 186.852 177.55 187.568L177.073 187.364C177.369 186.818 177.761 186.347 178.249 185.949C178.744 185.551 179.3 185.244 179.92 185.028C180.545 184.812 181.198 184.705 181.88 184.705C182.545 184.705 183.124 184.804 183.619 185.003C184.113 185.196 184.513 185.469 184.82 185.821C185.133 186.168 185.346 186.577 185.46 187.048C185.579 187.52 185.59 188.034 185.494 188.591L183.925 198H183.38L183.823 195.341H183.755C183.391 195.932 182.954 196.449 182.442 196.892C181.937 197.33 181.38 197.67 180.772 197.915C180.17 198.153 179.539 198.273 178.88 198.273ZM178.88 197.727C179.71 197.727 180.505 197.506 181.266 197.062C182.033 196.614 182.687 195.991 183.227 195.196C183.772 194.395 184.13 193.466 184.3 192.409L184.641 190.432C184.465 190.551 184.255 190.656 184.011 190.747C183.772 190.838 183.505 190.92 183.21 190.994C182.92 191.062 182.604 191.122 182.263 191.173C181.928 191.224 181.573 191.273 181.198 191.318C180.005 191.455 179.05 191.662 178.335 191.94C177.619 192.219 177.085 192.568 176.732 192.989C176.38 193.409 176.153 193.898 176.05 194.455C175.897 195.443 176.087 196.236 176.621 196.832C177.156 197.429 177.908 197.727 178.88 197.727ZM194.898 184.909L194.796 185.455H189.614L189.717 184.909H194.898ZM192.137 181.773H192.683L190.467 195.239C190.376 195.75 190.413 196.19 190.577 196.56C190.742 196.923 190.995 197.205 191.336 197.403C191.677 197.597 192.069 197.693 192.512 197.693C192.665 197.693 192.813 197.679 192.955 197.651C193.103 197.616 193.262 197.574 193.433 197.523L193.501 198.034C193.313 198.102 193.134 198.153 192.964 198.188C192.799 198.222 192.614 198.239 192.41 198.239C191.876 198.239 191.401 198.116 190.987 197.872C190.577 197.628 190.271 197.281 190.066 196.832C189.867 196.384 189.819 195.852 189.921 195.239L192.137 181.773ZM197.038 198L199.219 184.909H199.765L197.583 198H197.038ZM199.918 182.523C199.748 182.523 199.612 182.463 199.509 182.344C199.413 182.224 199.379 182.08 199.407 181.909C199.43 181.79 199.498 181.682 199.612 181.585C199.725 181.483 199.85 181.432 199.987 181.432C200.157 181.432 200.29 181.491 200.387 181.611C200.489 181.73 200.526 181.875 200.498 182.045C200.475 182.17 200.407 182.281 200.293 182.378C200.18 182.474 200.055 182.523 199.918 182.523ZM206.926 198.273C205.892 198.273 205.011 197.974 204.284 197.378C203.562 196.781 203.045 195.966 202.733 194.932C202.426 193.898 202.381 192.727 202.597 191.42C202.812 190.148 203.239 189.006 203.875 187.994C204.517 186.977 205.29 186.176 206.193 185.591C207.102 185 208.063 184.705 209.074 184.705C210.119 184.705 211.003 185.006 211.724 185.608C212.452 186.21 212.969 187.028 213.276 188.062C213.588 189.097 213.642 190.261 213.438 191.557C213.222 192.83 212.793 193.974 212.151 194.991C211.509 196.003 210.733 196.804 209.824 197.395C208.915 197.98 207.949 198.273 206.926 198.273ZM206.926 197.727C207.869 197.727 208.759 197.455 209.594 196.909C210.429 196.358 211.139 195.608 211.724 194.659C212.31 193.705 212.699 192.625 212.892 191.42C213.085 190.25 213.048 189.199 212.781 188.267C212.514 187.335 212.063 186.599 211.426 186.06C210.79 185.52 210.017 185.25 209.108 185.25C208.176 185.25 207.293 185.528 206.457 186.085C205.622 186.636 204.909 187.389 204.318 188.344C203.727 189.293 203.335 190.364 203.142 191.557C202.938 192.727 202.969 193.778 203.236 194.71C203.509 195.642 203.963 196.378 204.599 196.918C205.241 197.457 206.017 197.727 206.926 197.727ZM218.2 189.205L216.734 198H216.188L218.37 184.909H218.915L218.575 186.989H218.643C219.052 186.307 219.643 185.761 220.415 185.352C221.194 184.943 222.035 184.739 222.938 184.739C223.813 184.739 224.555 184.929 225.163 185.31C225.771 185.69 226.208 186.216 226.475 186.886C226.742 187.557 226.802 188.33 226.654 189.205L225.188 198H224.643L226.109 189.205C226.296 188.045 226.097 187.102 225.512 186.375C224.933 185.648 224.063 185.284 222.904 185.284C222.131 185.284 221.41 185.452 220.739 185.787C220.075 186.122 219.515 186.585 219.06 187.176C218.612 187.767 218.325 188.443 218.2 189.205ZM248.511 184.909C248.619 183.716 248.326 182.736 247.633 181.969C246.94 181.202 245.914 180.818 244.556 180.818C243.67 180.818 242.846 180.991 242.085 181.338C241.329 181.679 240.698 182.148 240.192 182.744C239.687 183.335 239.369 184.011 239.238 184.773C239.164 185.216 239.17 185.625 239.255 186C239.346 186.369 239.516 186.71 239.766 187.023C240.022 187.33 240.36 187.608 240.781 187.858C241.207 188.108 241.715 188.33 242.306 188.523L244.181 189.136C244.897 189.369 245.508 189.631 246.013 189.92C246.525 190.21 246.931 190.534 247.232 190.892C247.533 191.25 247.735 191.651 247.837 192.094C247.945 192.537 247.954 193.028 247.863 193.568C247.71 194.506 247.349 195.33 246.781 196.04C246.212 196.744 245.479 197.293 244.582 197.685C243.69 198.077 242.67 198.273 241.522 198.273C240.465 198.273 239.567 198.088 238.829 197.719C238.09 197.344 237.542 196.83 237.184 196.176C236.832 195.517 236.698 194.761 236.783 193.909H237.329C237.261 194.659 237.386 195.321 237.704 195.895C238.028 196.469 238.522 196.918 239.187 197.241C239.852 197.565 240.664 197.727 241.624 197.727C242.63 197.727 243.536 197.551 244.343 197.199C245.15 196.847 245.812 196.358 246.329 195.733C246.852 195.108 247.181 194.386 247.317 193.568C247.42 192.943 247.371 192.389 247.173 191.906C246.979 191.423 246.621 190.997 246.099 190.628C245.576 190.259 244.869 189.932 243.977 189.648L242.067 189.034C240.766 188.614 239.837 188.051 239.281 187.347C238.724 186.636 238.528 185.778 238.692 184.773C238.84 183.892 239.19 183.114 239.741 182.438C240.298 181.761 240.999 181.233 241.846 180.852C242.692 180.466 243.619 180.273 244.624 180.273C245.624 180.273 246.471 180.472 247.164 180.869C247.857 181.267 248.369 181.815 248.698 182.514C249.028 183.213 249.147 184.011 249.056 184.909H248.511ZM257.547 184.909L257.445 185.455H252.263L252.365 184.909H257.547ZM254.786 181.773H255.331L253.115 195.239C253.024 195.75 253.061 196.19 253.226 196.56C253.391 196.923 253.643 197.205 253.984 197.403C254.325 197.597 254.717 197.693 255.161 197.693C255.314 197.693 255.462 197.679 255.604 197.651C255.751 197.616 255.911 197.574 256.081 197.523L256.149 198.034C255.962 198.102 255.783 198.153 255.612 198.188C255.447 198.222 255.263 198.239 255.058 198.239C254.524 198.239 254.05 198.116 253.635 197.872C253.226 197.628 252.919 197.281 252.714 196.832C252.516 196.384 252.467 195.852 252.57 195.239L254.786 181.773ZM268.788 193.705L270.254 184.909H270.8L268.618 198H268.072L268.413 195.92H268.345C267.936 196.602 267.342 197.148 266.564 197.557C265.791 197.966 264.953 198.17 264.05 198.17C263.175 198.17 262.433 197.98 261.825 197.599C261.217 197.219 260.78 196.693 260.513 196.023C260.246 195.352 260.186 194.58 260.334 193.705L261.8 184.909H262.345L260.879 193.705C260.692 194.864 260.899 195.807 261.501 196.534C262.109 197.261 262.993 197.625 264.152 197.625C264.925 197.625 265.638 197.457 266.291 197.122C266.95 196.787 267.499 196.324 267.936 195.733C268.379 195.142 268.663 194.466 268.788 193.705ZM277.486 198.273C276.452 198.273 275.605 197.977 274.946 197.386C274.287 196.79 273.835 195.98 273.591 194.957C273.352 193.935 273.338 192.778 273.548 191.489C273.764 190.205 274.165 189.051 274.75 188.028C275.335 187.006 276.054 186.196 276.906 185.599C277.764 185.003 278.702 184.705 279.719 184.705C280.418 184.705 281.034 184.849 281.568 185.139C282.108 185.423 282.548 185.832 282.889 186.366C283.236 186.895 283.463 187.523 283.571 188.25H283.639L284.918 180.545H285.463L282.565 198H282.02L282.565 194.727H282.497C282.139 195.449 281.702 196.077 281.185 196.611C280.673 197.139 280.102 197.548 279.472 197.838C278.847 198.128 278.185 198.273 277.486 198.273ZM277.486 197.727C278.412 197.727 279.264 197.455 280.043 196.909C280.821 196.358 281.474 195.614 282.003 194.676C282.537 193.733 282.901 192.67 283.094 191.489C283.293 190.307 283.293 189.247 283.094 188.31C282.901 187.366 282.52 186.622 281.952 186.077C281.384 185.526 280.639 185.25 279.719 185.25C278.798 185.25 277.949 185.526 277.17 186.077C276.392 186.622 275.733 187.366 275.193 188.31C274.659 189.247 274.293 190.307 274.094 191.489C273.901 192.67 273.901 193.733 274.094 194.676C274.293 195.614 274.676 196.358 275.244 196.909C275.812 197.455 276.56 197.727 277.486 197.727ZM287.67 198L289.852 184.909H290.398L288.216 198H287.67ZM290.551 182.523C290.381 182.523 290.244 182.463 290.142 182.344C290.045 182.224 290.011 182.08 290.04 181.909C290.063 181.79 290.131 181.682 290.244 181.585C290.358 181.483 290.483 181.432 290.619 181.432C290.79 181.432 290.923 181.491 291.02 181.611C291.122 181.73 291.159 181.875 291.131 182.045C291.108 182.17 291.04 182.281 290.926 182.378C290.813 182.474 290.688 182.523 290.551 182.523ZM297.559 198.273C296.525 198.273 295.644 197.974 294.917 197.378C294.195 196.781 293.678 195.966 293.366 194.932C293.059 193.898 293.013 192.727 293.229 191.42C293.445 190.148 293.871 189.006 294.508 187.994C295.15 186.977 295.923 186.176 296.826 185.591C297.735 185 298.695 184.705 299.707 184.705C300.752 184.705 301.636 185.006 302.357 185.608C303.085 186.21 303.602 187.028 303.908 188.062C304.221 189.097 304.275 190.261 304.07 191.557C303.854 192.83 303.425 193.974 302.783 194.991C302.141 196.003 301.366 196.804 300.457 197.395C299.548 197.98 298.582 198.273 297.559 198.273ZM297.559 197.727C298.502 197.727 299.391 197.455 300.227 196.909C301.062 196.358 301.772 195.608 302.357 194.659C302.942 193.705 303.332 192.625 303.525 191.42C303.718 190.25 303.681 189.199 303.414 188.267C303.147 187.335 302.695 186.599 302.059 186.06C301.423 185.52 300.65 185.25 299.741 185.25C298.809 185.25 297.925 185.528 297.09 186.085C296.255 186.636 295.542 187.389 294.951 188.344C294.36 189.293 293.968 190.364 293.775 191.557C293.57 192.727 293.602 193.778 293.869 194.71C294.141 195.642 294.596 196.378 295.232 196.918C295.874 197.457 296.65 197.727 297.559 197.727Z" fill="black"/>
</svg>
