<svg width="600" height="400" viewBox="0 0 414 268" fill="none" xmlns="http://www.w3.org/2000/svg">
<path d="M23.8409 138C23.9432 136.875 23.6705 135.994 23.0227 135.358C22.375 134.71 21.2841 134.386 19.75 134.386C18.7727 134.386 17.9545 134.5 17.2955 134.727C16.6477 134.955 16.142 135.267 15.7784 135.665C15.4261 136.062 15.2045 136.523 15.1136 137.045C15.0114 137.455 15.017 137.83 15.1307 138.17C15.2557 138.5 15.4886 138.801 15.8295 139.074C16.1818 139.347 16.642 139.591 17.2102 139.807C17.7898 140.023 18.4773 140.216 19.2727 140.386L22 141C23.8636 141.409 25.4261 141.949 26.6875 142.619C27.9602 143.278 28.9602 144.062 29.6875 144.972C30.4148 145.881 30.892 146.898 31.1193 148.023C31.358 149.148 31.3636 150.375 31.1364 151.705C30.75 154 29.858 155.943 28.4602 157.534C27.0625 159.125 25.2386 160.335 22.9886 161.165C20.7386 161.994 18.1364 162.409 15.1818 162.409C12.1591 162.409 9.59091 161.96 7.47727 161.062C5.375 160.153 3.85227 158.767 2.90909 156.903C1.97727 155.028 1.75 152.636 2.22727 149.727H11.2273C11.0909 150.795 11.2045 151.693 11.5682 152.42C11.9318 153.148 12.517 153.699 13.3239 154.074C14.1307 154.449 15.1364 154.636 16.3409 154.636C17.3636 154.636 18.2386 154.511 18.9659 154.261C19.6932 154.011 20.267 153.665 20.6875 153.222C21.108 152.778 21.3636 152.273 21.4545 151.705C21.5455 151.182 21.4545 150.716 21.1818 150.307C20.9091 149.898 20.4148 149.528 19.6989 149.199C18.983 148.869 18 148.568 16.75 148.295L13.4091 147.545C10.4432 146.864 8.20455 145.739 6.69318 144.17C5.18182 142.602 4.64773 140.455 5.09091 137.727C5.45455 135.5 6.36932 133.557 7.83523 131.898C9.3125 130.227 11.1875 128.932 13.4602 128.011C15.7443 127.08 18.2727 126.614 21.0455 126.614C23.8636 126.614 26.2216 127.085 28.1193 128.028C30.0284 128.972 31.3977 130.295 32.2273 132C33.0682 133.705 33.2955 135.705 32.9091 138H23.8409ZM33.1733 162L37.5369 135.818H46.946L42.5824 162H33.1733ZM42.6506 133.091C41.3778 133.091 40.3494 132.67 39.5653 131.83C38.7813 130.977 38.4915 129.966 38.696 128.795C38.9006 127.602 39.5256 126.591 40.571 125.761C41.6165 124.92 42.7756 124.5 44.0483 124.5C45.3324 124.5 46.3551 124.92 47.1165 125.761C47.8778 126.591 48.1619 127.602 47.9688 128.795C47.7869 129.966 47.1733 130.977 46.1278 131.83C45.0938 132.67 43.9347 133.091 42.6506 133.091ZM59.8537 135.818L62.3082 143.932L67.6946 135.818H77.0355L67.831 148.909L73.0128 162H63.7401L60.6719 153.682L55.0128 162H45.6037L55.2173 148.909L50.4446 135.818H59.8537ZM108.216 138C108.318 136.875 108.045 135.994 107.398 135.358C106.75 134.71 105.659 134.386 104.125 134.386C103.148 134.386 102.33 134.5 101.67 134.727C101.023 134.955 100.517 135.267 100.153 135.665C99.8011 136.062 99.5795 136.523 99.4886 137.045C99.3864 137.455 99.392 137.83 99.5057 138.17C99.6307 138.5 99.8636 138.801 100.205 139.074C100.557 139.347 101.017 139.591 101.585 139.807C102.165 140.023 102.852 140.216 103.648 140.386L106.375 141C108.239 141.409 109.801 141.949 111.062 142.619C112.335 143.278 113.335 144.062 114.062 144.972C114.79 145.881 115.267 146.898 115.494 148.023C115.733 149.148 115.739 150.375 115.511 151.705C115.125 154 114.233 155.943 112.835 157.534C111.438 159.125 109.614 160.335 107.364 161.165C105.114 161.994 102.511 162.409 99.5568 162.409C96.5341 162.409 93.9659 161.96 91.8523 161.062C89.75 160.153 88.2273 158.767 87.2841 156.903C86.3523 155.028 86.125 152.636 86.6023 149.727H95.6023C95.4659 150.795 95.5795 151.693 95.9432 152.42C96.3068 153.148 96.892 153.699 97.6989 154.074C98.5057 154.449 99.5114 154.636 100.716 154.636C101.739 154.636 102.614 154.511 103.341 154.261C104.068 154.011 104.642 153.665 105.062 153.222C105.483 152.778 105.739 152.273 105.83 151.705C105.92 151.182 105.83 150.716 105.557 150.307C105.284 149.898 104.79 149.528 104.074 149.199C103.358 148.869 102.375 148.568 101.125 148.295L97.7841 147.545C94.8182 146.864 92.5795 145.739 91.0682 144.17C89.5568 142.602 89.0227 140.455 89.4659 137.727C89.8295 135.5 90.7443 133.557 92.2102 131.898C93.6875 130.227 95.5625 128.932 97.8352 128.011C100.119 127.08 102.648 126.614 105.42 126.614C108.239 126.614 110.597 127.085 112.494 128.028C114.403 128.972 115.773 130.295 116.602 132C117.443 133.705 117.67 135.705 117.284 138H108.216ZM137.526 135.818L136.366 142.636H119.116L120.276 135.818H137.526ZM124.639 129.545H134.048L130.06 153.58C130.003 153.943 130.014 154.25 130.094 154.5C130.173 154.739 130.332 154.92 130.571 155.045C130.821 155.159 131.151 155.216 131.56 155.216C131.832 155.216 132.168 155.182 132.565 155.114C132.963 155.034 133.264 154.977 133.469 154.943L133.741 161.557C133.264 161.693 132.622 161.847 131.815 162.017C131.02 162.199 130.094 162.318 129.037 162.375C126.832 162.477 125.037 162.244 123.651 161.676C122.276 161.108 121.321 160.222 120.787 159.017C120.264 157.801 120.173 156.284 120.514 154.466L124.639 129.545ZM155.888 150.545L158.342 135.818H167.751L163.388 162H154.456L155.274 157.023H155.001C154.195 158.693 152.99 160 151.388 160.943C149.797 161.875 148.024 162.341 146.07 162.341C144.24 162.341 142.712 161.92 141.484 161.08C140.257 160.239 139.388 159.08 138.876 157.602C138.365 156.125 138.263 154.432 138.57 152.523L141.365 135.818H150.774L148.32 150.545C148.126 151.841 148.291 152.858 148.814 153.597C149.348 154.335 150.206 154.705 151.388 154.705C152.172 154.705 152.876 154.54 153.501 154.21C154.138 153.869 154.661 153.392 155.07 152.778C155.49 152.153 155.763 151.409 155.888 150.545ZM177.616 162.341C175.753 162.341 174.116 161.852 172.707 160.875C171.31 159.898 170.304 158.415 169.69 156.426C169.088 154.437 169.037 151.932 169.537 148.909C170.06 145.75 170.974 143.182 172.281 141.205C173.599 139.227 175.111 137.778 176.815 136.858C178.531 135.938 180.253 135.477 181.98 135.477C183.276 135.477 184.372 135.705 185.27 136.159C186.179 136.602 186.901 137.199 187.435 137.949C187.969 138.687 188.332 139.5 188.526 140.386H188.662L190.878 127.091H200.287L194.491 162H185.151L185.866 157.705H185.662C185.151 158.591 184.497 159.386 183.702 160.091C182.918 160.784 182.014 161.335 180.991 161.744C179.969 162.142 178.844 162.341 177.616 162.341ZM182.287 155.114C183.151 155.114 183.935 154.864 184.639 154.364C185.344 153.852 185.94 153.136 186.429 152.216C186.918 151.284 187.264 150.182 187.469 148.909C187.685 147.614 187.702 146.506 187.52 145.585C187.338 144.653 186.974 143.943 186.429 143.455C185.895 142.955 185.196 142.705 184.332 142.705C183.469 142.705 182.69 142.955 181.997 143.455C181.304 143.943 180.719 144.653 180.241 145.585C179.776 146.506 179.435 147.614 179.219 148.909C179.003 150.205 178.974 151.318 179.134 152.25C179.304 153.17 179.656 153.881 180.19 154.381C180.724 154.869 181.423 155.114 182.287 155.114ZM199.111 162L203.474 135.818H212.884L208.52 162H199.111ZM208.588 133.091C207.315 133.091 206.287 132.67 205.503 131.83C204.719 130.977 204.429 129.966 204.634 128.795C204.838 127.602 205.463 126.591 206.509 125.761C207.554 124.92 208.713 124.5 209.986 124.5C211.27 124.5 212.293 124.92 213.054 125.761C213.815 126.591 214.099 127.602 213.906 128.795C213.724 129.966 213.111 130.977 212.065 131.83C211.031 132.67 209.872 133.091 208.588 133.091ZM225.859 162.477C223.018 162.477 220.678 161.915 218.837 160.79C217.007 159.653 215.723 158.074 214.984 156.051C214.246 154.017 214.098 151.659 214.541 148.977C214.984 146.295 215.911 143.943 217.32 141.92C218.729 139.886 220.541 138.307 222.757 137.182C224.973 136.045 227.507 135.477 230.359 135.477C233.189 135.477 235.518 136.045 237.348 137.182C239.189 138.307 240.479 139.886 241.217 141.92C241.967 143.943 242.121 146.295 241.678 148.977C241.234 151.659 240.303 154.017 238.882 156.051C237.462 158.074 235.643 159.653 233.428 160.79C231.223 161.915 228.7 162.477 225.859 162.477ZM227.018 155.523C227.837 155.523 228.581 155.256 229.251 154.722C229.933 154.187 230.513 153.426 230.99 152.438C231.479 151.449 231.837 150.273 232.064 148.909C232.291 147.534 232.325 146.358 232.166 145.381C232.007 144.392 231.678 143.631 231.178 143.097C230.678 142.562 230.018 142.295 229.2 142.295C228.382 142.295 227.632 142.562 226.95 143.097C226.268 143.631 225.689 144.392 225.212 145.381C224.734 146.358 224.382 147.534 224.155 148.909C223.928 150.273 223.888 151.449 224.036 152.438C224.195 153.426 224.524 154.187 225.024 154.722C225.536 155.256 226.2 155.523 227.018 155.523ZM270.109 144.341H261.655C261.7 143.795 261.604 143.33 261.365 142.943C261.126 142.557 260.791 142.261 260.359 142.057C259.939 141.852 259.462 141.75 258.928 141.75C257.996 141.75 257.149 141.96 256.388 142.381C255.626 142.79 255.2 143.33 255.109 144C255.053 144.261 255.138 144.506 255.365 144.733C255.592 144.96 256.189 145.17 257.155 145.364L262.337 146.318C264.928 146.795 266.814 147.665 267.996 148.926C269.189 150.176 269.621 151.83 269.291 153.886C268.984 155.67 268.2 157.205 266.939 158.489C265.678 159.773 264.075 160.761 262.132 161.455C260.2 162.136 258.064 162.477 255.723 162.477C251.598 162.477 248.507 161.653 246.45 160.006C244.405 158.358 243.473 156.205 243.655 153.545H252.791C252.814 154.398 253.098 155.04 253.643 155.472C254.2 155.892 254.939 156.114 255.859 156.136C256.859 156.17 257.734 155.972 258.484 155.54C259.234 155.097 259.655 154.545 259.746 153.886C259.78 153.511 259.615 153.227 259.251 153.034C258.899 152.841 258.223 152.648 257.223 152.455L252.723 151.636C250.132 151.17 248.246 150.239 247.064 148.841C245.882 147.432 245.473 145.636 245.837 143.455C246.132 141.716 246.837 140.256 247.95 139.074C249.075 137.892 250.553 137 252.382 136.398C254.212 135.784 256.325 135.477 258.723 135.477C262.643 135.477 265.609 136.267 267.621 137.847C269.643 139.415 270.473 141.58 270.109 144.341Z" fill="black"/>
<path d="M327 215.187C320.229 215.187 314.188 213.651 308.875 210.578C303.615 207.505 299.37 202.896 296.141 196.75C292.911 190.552 290.88 182.766 290.047 173.391C289.266 164.016 289.917 153.052 292 140.5C293.719 129.719 296.193 119.042 299.422 108.469C302.651 97.8437 306.818 88.1823 311.922 79.4844C317.026 70.7865 323.172 63.8333 330.359 58.625C337.599 53.4167 346.063 50.8125 355.75 50.8125C363.667 50.8125 370.281 52.6094 375.594 56.2031C380.906 59.7448 384.76 64.6927 387.156 71.0469C389.552 77.349 390.333 84.6667 389.5 93H384.5C385.438 82.0625 383.536 73.1302 378.797 66.2031C374.109 59.276 366.531 55.8125 356.063 55.8125C341.375 55.8125 328.927 63.2604 318.719 78.1563C308.51 93.0521 301.063 114.563 296.375 142.687H297C299.604 137.375 303.302 132.661 308.094 128.547C312.938 124.38 318.354 121.125 324.344 118.781C330.385 116.385 336.479 115.187 342.625 115.187C351.063 115.187 358.406 117.375 364.656 121.75C370.906 126.125 375.49 132.089 378.406 139.641C381.323 147.193 382 155.708 380.438 165.187C378.875 174.042 375.568 182.271 370.516 189.875C365.464 197.479 359.188 203.599 351.687 208.234C344.188 212.87 335.958 215.187 327 215.187ZM327 210.187C334.708 210.187 341.974 208.156 348.797 204.094C355.62 200.031 361.401 194.589 366.141 187.766C370.88 180.943 373.979 173.417 375.438 165.187C376.792 156.75 376.245 149.146 373.797 142.375C371.401 135.552 367.469 130.161 362 126.203C356.583 122.193 350.021 120.188 342.313 120.188C336.219 120.188 330.307 121.464 324.578 124.016C318.901 126.516 313.797 129.979 309.266 134.406C304.786 138.833 301.245 143.885 298.641 149.562C296.036 155.187 294.76 161.125 294.813 167.375C295.021 176.75 296.401 184.615 298.953 190.969C301.557 197.323 305.203 202.115 309.891 205.344C314.63 208.573 320.333 210.187 327 210.187Z" fill="#BABABA"/>
<line x1="0.998155" y1="183.5" x2="271.998" y2="182.5" stroke="#BABABA"/>
<path d="M31.3068 213.239C30.3295 213.239 29.4801 213.04 28.7585 212.642C28.0426 212.244 27.5114 211.699 27.1648 211.006C26.8239 210.312 26.7273 209.523 26.875 208.636H27.4205C27.2955 209.42 27.3778 210.119 27.6676 210.733C27.9631 211.341 28.4233 211.821 29.0483 212.173C29.679 212.52 30.4318 212.693 31.3068 212.693C32.2273 212.693 33.0739 212.503 33.8466 212.122C34.625 211.736 35.267 211.224 35.7727 210.588C36.2841 209.946 36.6023 209.239 36.7273 208.466C36.8636 207.625 36.7614 206.892 36.4205 206.267C36.0852 205.636 35.5597 205.148 34.8438 204.801C34.1335 204.449 33.2841 204.273 32.2955 204.273H32.0227L32.0909 203.727H32.3636C33.2386 203.727 34.054 203.565 34.8097 203.241C35.5653 202.918 36.196 202.46 36.7017 201.869C37.2074 201.278 37.5227 200.58 37.6477 199.773C37.7727 199.023 37.7216 198.352 37.4943 197.761C37.267 197.17 36.8807 196.705 36.3352 196.364C35.7898 196.023 35.1023 195.852 34.2727 195.852C33.4659 195.852 32.7074 196.026 31.9972 196.372C31.2869 196.713 30.6903 197.19 30.2074 197.804C29.7244 198.412 29.4205 199.114 29.2955 199.909H28.75C28.8977 199.011 29.233 198.216 29.7557 197.523C30.2784 196.83 30.929 196.287 31.7074 195.895C32.4858 195.503 33.3295 195.307 34.2386 195.307C35.1591 195.307 35.9403 195.503 36.5824 195.895C37.2301 196.281 37.696 196.812 37.9801 197.489C38.2699 198.159 38.3409 198.92 38.1932 199.773C38.0398 200.795 37.608 201.673 36.8977 202.406C36.1875 203.134 35.3125 203.642 34.2727 203.932V204C35.3636 204.29 36.1818 204.83 36.7273 205.619C37.2784 206.409 37.4602 207.358 37.2727 208.466C37.125 209.364 36.7727 210.173 36.2159 210.895C35.6591 211.616 34.9574 212.187 34.1108 212.608C33.2642 213.028 32.3295 213.239 31.3068 213.239ZM45.9233 213H41.3551L44.2528 195.545H49.2642C50.8665 195.545 52.1847 195.892 53.2188 196.585C54.2528 197.273 54.9688 198.264 55.3665 199.56C55.7642 200.849 55.8097 202.398 55.5028 204.205C55.1847 206.057 54.5938 207.639 53.7301 208.952C52.8722 210.264 51.7813 211.267 50.4574 211.96C49.1392 212.653 47.6278 213 45.9233 213ZM41.9943 212.455H46.0256C47.6108 212.455 49.0227 212.119 50.2614 211.449C51.5057 210.778 52.5313 209.827 53.3381 208.594C54.1449 207.361 54.6847 205.898 54.9574 204.205C55.2358 202.477 55.2017 201.011 54.8551 199.807C54.5085 198.597 53.858 197.676 52.9034 197.045C51.9545 196.409 50.7074 196.091 49.1619 196.091H44.7045L41.9943 212.455ZM63.8977 213H63.3182L72.4545 195.545H73.2045L76.5455 213H75.9659L72.7614 196.227H72.6932L63.8977 213ZM66.9659 206.557H75.0795L74.9773 207.102H66.8636L66.9659 206.557ZM81.6527 204.205L80.1868 213H79.6413L81.8232 199.909H82.3686L82.0277 201.989H82.0959C82.505 201.307 83.0959 200.761 83.8686 200.352C84.647 199.943 85.4879 199.739 86.3913 199.739C87.2663 199.739 88.0078 199.929 88.6158 200.31C89.2237 200.69 89.6612 201.216 89.9283 201.886C90.1953 202.557 90.255 203.33 90.1072 204.205L88.6413 213H88.0959L89.5618 204.205C89.7493 203.045 89.5504 202.102 88.9652 201.375C88.3857 200.648 87.5163 200.284 86.3572 200.284C85.5845 200.284 84.8629 200.452 84.1925 200.787C83.5277 201.122 82.968 201.585 82.5135 202.176C82.0646 202.767 81.7777 203.443 81.6527 204.205ZM93.3501 213L95.532 199.909H96.0774L93.8956 213H93.3501ZM96.2308 197.523C96.0604 197.523 95.924 197.463 95.8217 197.344C95.7251 197.224 95.6911 197.08 95.7195 196.909C95.7422 196.79 95.8104 196.682 95.924 196.585C96.0376 196.483 96.1626 196.432 96.299 196.432C96.4695 196.432 96.603 196.491 96.6996 196.611C96.8018 196.73 96.8388 196.875 96.8104 197.045C96.7876 197.17 96.7195 197.281 96.6058 197.378C96.4922 197.474 96.3672 197.523 96.2308 197.523ZM98.6023 213L100.784 199.909H101.33L100.989 201.852H101.057C101.415 201.222 101.935 200.713 102.616 200.327C103.298 199.935 104.074 199.739 104.943 199.739C105.932 199.739 106.676 199.983 107.176 200.472C107.676 200.96 107.977 201.614 108.08 202.432H108.148C108.489 201.614 109.031 200.96 109.776 200.472C110.52 199.983 111.386 199.739 112.375 199.739C113.688 199.739 114.588 200.156 115.077 200.991C115.565 201.821 115.699 202.892 115.477 204.205L114.011 213H113.466L114.932 204.205C115.119 203.045 115.023 202.102 114.642 201.375C114.267 200.648 113.5 200.284 112.341 200.284C111.182 200.284 110.222 200.653 109.46 201.392C108.705 202.125 108.233 203.062 108.045 204.205L106.58 213H106.034L107.5 204.205C107.688 203.045 107.591 202.102 107.21 201.375C106.835 200.648 106.068 200.284 104.909 200.284C104.136 200.284 103.449 200.452 102.847 200.787C102.25 201.122 101.759 201.585 101.372 202.176C100.991 202.767 100.739 203.443 100.614 204.205L99.1477 213H98.6023ZM121.88 213.273C121.164 213.273 120.528 213.125 119.971 212.83C119.42 212.534 119.005 212.102 118.727 211.534C118.454 210.966 118.38 210.273 118.505 209.455C118.585 209.011 118.727 208.597 118.931 208.21C119.141 207.818 119.451 207.463 119.86 207.145C120.275 206.827 120.823 206.554 121.505 206.327C122.187 206.099 123.039 205.926 124.062 205.807C124.675 205.739 125.258 205.659 125.809 205.568C126.36 205.477 126.817 205.341 127.181 205.159C127.545 204.977 127.755 204.716 127.812 204.375L127.948 203.591C128.119 202.585 127.931 201.778 127.386 201.17C126.84 200.557 126.005 200.25 124.88 200.25C123.96 200.25 123.104 200.457 122.315 200.872C121.531 201.287 120.942 201.852 120.55 202.568L120.073 202.364C120.369 201.818 120.761 201.347 121.249 200.949C121.744 200.551 122.3 200.244 122.92 200.028C123.545 199.812 124.198 199.705 124.88 199.705C125.545 199.705 126.124 199.804 126.619 200.003C127.113 200.196 127.513 200.469 127.82 200.821C128.133 201.168 128.346 201.577 128.46 202.048C128.579 202.52 128.59 203.034 128.494 203.591L126.925 213H126.38L126.823 210.341H126.755C126.391 210.932 125.954 211.449 125.442 211.892C124.937 212.33 124.38 212.67 123.772 212.915C123.17 213.153 122.539 213.273 121.88 213.273ZM121.88 212.727C122.71 212.727 123.505 212.506 124.266 212.062C125.033 211.614 125.687 210.991 126.227 210.196C126.772 209.395 127.13 208.466 127.3 207.409L127.641 205.432C127.465 205.551 127.255 205.656 127.011 205.747C126.772 205.838 126.505 205.92 126.21 205.994C125.92 206.062 125.604 206.122 125.263 206.173C124.928 206.224 124.573 206.273 124.198 206.318C123.005 206.455 122.05 206.662 121.335 206.94C120.619 207.219 120.085 207.568 119.732 207.989C119.38 208.409 119.153 208.898 119.05 209.455C118.897 210.443 119.087 211.236 119.621 211.832C120.156 212.429 120.908 212.727 121.88 212.727ZM137.898 199.909L137.796 200.455H132.614L132.717 199.909H137.898ZM135.137 196.773H135.683L133.467 210.239C133.376 210.75 133.413 211.19 133.577 211.56C133.742 211.923 133.995 212.205 134.336 212.403C134.677 212.597 135.069 212.693 135.512 212.693C135.665 212.693 135.813 212.679 135.955 212.651C136.103 212.616 136.262 212.574 136.433 212.523L136.501 213.034C136.313 213.102 136.134 213.153 135.964 213.188C135.799 213.222 135.614 213.239 135.41 213.239C134.876 213.239 134.401 213.116 133.987 212.872C133.577 212.628 133.271 212.281 133.066 211.832C132.867 211.384 132.819 210.852 132.921 210.239L135.137 196.773ZM140.038 213L142.219 199.909H142.765L140.583 213H140.038ZM142.918 197.523C142.748 197.523 142.612 197.463 142.509 197.344C142.413 197.224 142.379 197.08 142.407 196.909C142.43 196.79 142.498 196.682 142.612 196.585C142.725 196.483 142.85 196.432 142.987 196.432C143.157 196.432 143.29 196.491 143.387 196.611C143.489 196.73 143.526 196.875 143.498 197.045C143.475 197.17 143.407 197.281 143.293 197.378C143.18 197.474 143.055 197.523 142.918 197.523ZM149.926 213.273C148.892 213.273 148.011 212.974 147.284 212.378C146.562 211.781 146.045 210.966 145.733 209.932C145.426 208.898 145.381 207.727 145.597 206.42C145.812 205.148 146.239 204.006 146.875 202.994C147.517 201.977 148.29 201.176 149.193 200.591C150.102 200 151.063 199.705 152.074 199.705C153.119 199.705 154.003 200.006 154.724 200.608C155.452 201.21 155.969 202.028 156.276 203.062C156.588 204.097 156.642 205.261 156.438 206.557C156.222 207.83 155.793 208.974 155.151 209.991C154.509 211.003 153.733 211.804 152.824 212.395C151.915 212.98 150.949 213.273 149.926 213.273ZM149.926 212.727C150.869 212.727 151.759 212.455 152.594 211.909C153.429 211.358 154.139 210.608 154.724 209.659C155.31 208.705 155.699 207.625 155.892 206.42C156.085 205.25 156.048 204.199 155.781 203.267C155.514 202.335 155.063 201.599 154.426 201.06C153.79 200.52 153.017 200.25 152.108 200.25C151.176 200.25 150.293 200.528 149.457 201.085C148.622 201.636 147.909 202.389 147.318 203.344C146.727 204.293 146.335 205.364 146.142 206.557C145.938 207.727 145.969 208.778 146.236 209.71C146.509 210.642 146.963 211.378 147.599 211.918C148.241 212.457 149.017 212.727 149.926 212.727ZM161.2 204.205L159.734 213H159.188L161.37 199.909H161.915L161.575 201.989H161.643C162.052 201.307 162.643 200.761 163.415 200.352C164.194 199.943 165.035 199.739 165.938 199.739C166.813 199.739 167.555 199.929 168.163 200.31C168.771 200.69 169.208 201.216 169.475 201.886C169.742 202.557 169.802 203.33 169.654 204.205L168.188 213H167.643L169.109 204.205C169.296 203.045 169.097 202.102 168.512 201.375C167.933 200.648 167.063 200.284 165.904 200.284C165.131 200.284 164.41 200.452 163.739 200.787C163.075 201.122 162.515 201.585 162.06 202.176C161.612 202.767 161.325 203.443 161.2 204.205ZM191.511 199.909C191.619 198.716 191.326 197.736 190.633 196.969C189.94 196.202 188.914 195.818 187.556 195.818C186.67 195.818 185.846 195.991 185.085 196.338C184.329 196.679 183.698 197.148 183.192 197.744C182.687 198.335 182.369 199.011 182.238 199.773C182.164 200.216 182.17 200.625 182.255 201C182.346 201.369 182.516 201.71 182.766 202.023C183.022 202.33 183.36 202.608 183.781 202.858C184.207 203.108 184.715 203.33 185.306 203.523L187.181 204.136C187.897 204.369 188.508 204.631 189.013 204.92C189.525 205.21 189.931 205.534 190.232 205.892C190.533 206.25 190.735 206.651 190.837 207.094C190.945 207.537 190.954 208.028 190.863 208.568C190.71 209.506 190.349 210.33 189.781 211.04C189.212 211.744 188.479 212.293 187.582 212.685C186.69 213.077 185.67 213.273 184.522 213.273C183.465 213.273 182.567 213.088 181.829 212.719C181.09 212.344 180.542 211.83 180.184 211.176C179.832 210.517 179.698 209.761 179.783 208.909H180.329C180.261 209.659 180.386 210.321 180.704 210.895C181.028 211.469 181.522 211.918 182.187 212.241C182.852 212.565 183.664 212.727 184.624 212.727C185.63 212.727 186.536 212.551 187.343 212.199C188.15 211.847 188.812 211.358 189.329 210.733C189.852 210.108 190.181 209.386 190.317 208.568C190.42 207.943 190.371 207.389 190.173 206.906C189.979 206.423 189.621 205.997 189.099 205.628C188.576 205.259 187.869 204.932 186.977 204.648L185.067 204.034C183.766 203.614 182.837 203.051 182.281 202.347C181.724 201.636 181.528 200.778 181.692 199.773C181.84 198.892 182.19 198.114 182.741 197.438C183.298 196.761 183.999 196.233 184.846 195.852C185.692 195.466 186.619 195.273 187.624 195.273C188.624 195.273 189.471 195.472 190.164 195.869C190.857 196.267 191.369 196.815 191.698 197.514C192.028 198.213 192.147 199.011 192.056 199.909H191.511ZM200.547 199.909L200.445 200.455H195.263L195.365 199.909H200.547ZM197.786 196.773H198.331L196.115 210.239C196.024 210.75 196.061 211.19 196.226 211.56C196.391 211.923 196.643 212.205 196.984 212.403C197.325 212.597 197.717 212.693 198.161 212.693C198.314 212.693 198.462 212.679 198.604 212.651C198.751 212.616 198.911 212.574 199.081 212.523L199.149 213.034C198.962 213.102 198.783 213.153 198.612 213.188C198.447 213.222 198.263 213.239 198.058 213.239C197.524 213.239 197.05 213.116 196.635 212.872C196.226 212.628 195.919 212.281 195.714 211.832C195.516 211.384 195.467 210.852 195.57 210.239L197.786 196.773ZM211.788 208.705L213.254 199.909H213.8L211.618 213H211.072L211.413 210.92H211.345C210.936 211.602 210.342 212.148 209.564 212.557C208.791 212.966 207.953 213.17 207.05 213.17C206.175 213.17 205.433 212.98 204.825 212.599C204.217 212.219 203.78 211.693 203.513 211.023C203.246 210.352 203.186 209.58 203.334 208.705L204.8 199.909H205.345L203.879 208.705C203.692 209.864 203.899 210.807 204.501 211.534C205.109 212.261 205.993 212.625 207.152 212.625C207.925 212.625 208.638 212.457 209.291 212.122C209.95 211.787 210.499 211.324 210.936 210.733C211.379 210.142 211.663 209.466 211.788 208.705ZM220.486 213.273C219.452 213.273 218.605 212.977 217.946 212.386C217.287 211.79 216.835 210.98 216.591 209.957C216.352 208.935 216.338 207.778 216.548 206.489C216.764 205.205 217.165 204.051 217.75 203.028C218.335 202.006 219.054 201.196 219.906 200.599C220.764 200.003 221.702 199.705 222.719 199.705C223.418 199.705 224.034 199.849 224.568 200.139C225.108 200.423 225.548 200.832 225.889 201.366C226.236 201.895 226.463 202.523 226.571 203.25H226.639L227.918 195.545H228.463L225.565 213H225.02L225.565 209.727H225.497C225.139 210.449 224.702 211.077 224.185 211.611C223.673 212.139 223.102 212.548 222.472 212.838C221.847 213.128 221.185 213.273 220.486 213.273ZM220.486 212.727C221.412 212.727 222.264 212.455 223.043 211.909C223.821 211.358 224.474 210.614 225.003 209.676C225.537 208.733 225.901 207.67 226.094 206.489C226.293 205.307 226.293 204.247 226.094 203.31C225.901 202.366 225.52 201.622 224.952 201.077C224.384 200.526 223.639 200.25 222.719 200.25C221.798 200.25 220.949 200.526 220.17 201.077C219.392 201.622 218.733 202.366 218.193 203.31C217.659 204.247 217.293 205.307 217.094 206.489C216.901 207.67 216.901 208.733 217.094 209.676C217.293 210.614 217.676 211.358 218.244 211.909C218.812 212.455 219.56 212.727 220.486 212.727ZM230.67 213L232.852 199.909H233.398L231.216 213H230.67ZM233.551 197.523C233.381 197.523 233.244 197.463 233.142 197.344C233.045 197.224 233.011 197.08 233.04 196.909C233.063 196.79 233.131 196.682 233.244 196.585C233.358 196.483 233.483 196.432 233.619 196.432C233.79 196.432 233.923 196.491 234.02 196.611C234.122 196.73 234.159 196.875 234.131 197.045C234.108 197.17 234.04 197.281 233.926 197.378C233.813 197.474 233.688 197.523 233.551 197.523ZM240.559 213.273C239.525 213.273 238.644 212.974 237.917 212.378C237.195 211.781 236.678 210.966 236.366 209.932C236.059 208.898 236.013 207.727 236.229 206.42C236.445 205.148 236.871 204.006 237.508 202.994C238.15 201.977 238.923 201.176 239.826 200.591C240.735 200 241.695 199.705 242.707 199.705C243.752 199.705 244.636 200.006 245.357 200.608C246.085 201.21 246.602 202.028 246.908 203.062C247.221 204.097 247.275 205.261 247.07 206.557C246.854 207.83 246.425 208.974 245.783 209.991C245.141 211.003 244.366 211.804 243.457 212.395C242.548 212.98 241.582 213.273 240.559 213.273ZM240.559 212.727C241.502 212.727 242.391 212.455 243.227 211.909C244.062 211.358 244.772 210.608 245.357 209.659C245.942 208.705 246.332 207.625 246.525 206.42C246.718 205.25 246.681 204.199 246.414 203.267C246.147 202.335 245.695 201.599 245.059 201.06C244.423 200.52 243.65 200.25 242.741 200.25C241.809 200.25 240.925 200.528 240.09 201.085C239.255 201.636 238.542 202.389 237.951 203.344C237.36 204.293 236.968 205.364 236.775 206.557C236.57 207.727 236.602 208.778 236.869 209.71C237.141 210.642 237.596 211.378 238.232 211.918C238.874 212.457 239.65 212.727 240.559 212.727Z" fill="black"/>
</svg>
