<svg width="518" height="112" viewBox="0 0 518 112" fill="none" xmlns="http://www.w3.org/2000/svg">
<circle cx="50" cy="55" r="45" stroke="#C7C7C7" stroke-width="10"/>
<path pathLength="1" d="M50.7491 84.272C47.5708 84.272 44.5523 83.7748 41.6937 82.7805C38.8528 81.7684 36.3315 80.1793 34.1298 78.0131C31.928 75.8469 30.1969 73.0238 28.9362 69.5436C27.6933 66.0635 27.0807 61.8466 27.0985 56.8927C27.1163 52.4716 27.6844 48.4943 28.803 44.9609C29.9394 41.4275 31.5463 38.4179 33.6237 35.9321C35.7189 33.4463 38.2224 31.5465 41.1344 30.2326C44.0463 28.9009 47.2867 28.235 50.8556 28.235C54.8684 28.235 58.4018 29.0074 61.4557 30.5522C64.5097 32.0969 66.9423 34.1654 68.7533 36.7578C70.5822 39.3324 71.6475 42.1733 71.9494 45.2805H57.3542C57.0168 43.7358 56.2356 42.6083 55.0104 41.898C53.803 41.1701 52.4181 40.8061 50.8556 40.8061C47.7484 40.8061 45.4668 42.1555 44.0108 44.8544C42.5726 47.5532 41.8357 51.1044 41.8002 55.5078H42.1198C42.8123 53.8387 43.8599 52.4094 45.2626 51.2198C46.6653 50.0302 48.2988 49.1157 50.1631 48.4765C52.0275 47.8373 53.9984 47.5177 56.0758 47.5177C59.3783 47.5177 62.2636 48.2635 64.7317 49.7549C67.2175 51.2464 69.1528 53.2883 70.5378 55.8806C71.9227 58.473 72.6063 61.4382 72.5886 64.7762C72.6063 68.6825 71.683 72.1005 69.8187 75.0302C67.9721 77.9598 65.4064 80.2326 62.1216 81.8483C58.8368 83.4641 55.0459 84.272 50.7491 84.272ZM50.6425 73.0859C52.1163 73.0859 53.4213 72.7485 54.5577 72.0738C55.7118 71.3991 56.6084 70.4758 57.2476 69.3039C57.9046 68.1321 58.2242 66.8004 58.2065 65.3089C58.2242 63.7997 57.9046 62.468 57.2476 61.3139C56.6084 60.142 55.7118 59.2187 54.5577 58.544C53.4213 57.8693 52.1163 57.5319 50.6425 57.5319C49.5594 57.5319 48.5562 57.7272 47.6329 58.1179C46.7274 58.4907 45.9373 59.0323 45.2626 59.7425C44.5878 60.435 44.0552 61.2606 43.6646 62.2194C43.2917 63.1605 43.0964 64.1903 43.0786 65.3089C43.0964 66.8004 43.4337 68.1321 44.0907 69.3039C44.7476 70.4758 45.6443 71.3991 46.7807 72.0738C47.917 72.7485 49.2043 73.0859 50.6425 73.0859Z" fill="#C7C7C7"/>
<path d="M179.181 100.018C178.011 100.018 176.966 99.8159 176.045 99.4125C175.13 99.009 174.406 98.4494 173.872 97.7335C173.343 97.0119 173.059 96.1767 173.02 95.2278H175.696C175.73 95.7448 175.903 96.1937 176.216 96.5744C176.534 96.9494 176.949 97.2392 177.46 97.4437C177.971 97.6482 178.539 97.7505 179.164 97.7505C179.852 97.7505 180.46 97.6312 180.988 97.3926C181.522 97.1539 181.94 96.8215 182.241 96.3954C182.542 95.9636 182.693 95.4664 182.693 94.9039C182.693 94.3187 182.542 93.8045 182.241 93.3613C181.946 92.9125 181.511 92.5602 180.937 92.3045C180.369 92.0488 179.681 91.921 178.875 91.921H177.4V89.7732H178.875C179.522 89.7732 180.091 89.6568 180.579 89.4238C181.074 89.1909 181.46 88.867 181.738 88.4522C182.017 88.0318 182.156 87.5403 182.156 86.9778C182.156 86.438 182.034 85.9693 181.789 85.5715C181.551 85.1681 181.21 84.8528 180.767 84.6255C180.329 84.3982 179.812 84.2846 179.216 84.2846C178.647 84.2846 178.116 84.3897 177.622 84.6C177.133 84.8045 176.735 85.1 176.429 85.4863C176.122 85.867 175.957 86.3244 175.934 86.8585H173.386C173.414 85.9153 173.693 85.0857 174.221 84.3698C174.755 83.6539 175.46 83.0943 176.335 82.6909C177.21 82.2875 178.181 82.0857 179.25 82.0857C180.369 82.0857 181.335 82.3045 182.147 82.742C182.966 83.1738 183.596 83.7505 184.039 84.4721C184.488 85.1937 184.71 85.9835 184.704 86.8414C184.71 87.8187 184.437 88.6482 183.886 89.3301C183.341 90.0119 182.613 90.4693 181.704 90.7022V90.8386C182.863 91.0147 183.761 91.475 184.397 92.2193C185.039 92.9636 185.358 93.8869 185.352 94.9892C185.358 95.9494 185.091 96.8102 184.551 97.5715C184.017 98.3329 183.287 98.9323 182.36 99.3698C181.434 99.8017 180.375 100.018 179.181 100.018ZM194.463 99.7789H188.812V82.3244H194.642C196.352 82.3244 197.821 82.6738 199.048 83.3727C200.275 84.0659 201.216 85.063 201.869 86.3642C202.528 87.6596 202.858 89.2136 202.858 91.0261C202.858 92.8443 202.525 94.4068 201.86 95.7136C201.201 97.0204 200.247 98.0261 198.997 98.7306C197.747 99.4295 196.235 99.7789 194.463 99.7789ZM191.446 97.4778H194.318C195.647 97.4778 196.752 97.2278 197.633 96.7278C198.514 96.2221 199.173 95.492 199.61 94.5375C200.048 93.5772 200.267 92.4068 200.267 91.0261C200.267 89.6568 200.048 88.4948 199.61 87.5403C199.179 86.5857 198.534 85.8613 197.676 85.367C196.818 84.8727 195.752 84.6255 194.48 84.6255H191.446V97.4778ZM213.958 99.7789H211.163L217.444 82.3244H220.487L226.768 99.7789H223.973L219.038 85.4948H218.902L213.958 99.7789ZM214.427 92.9437H223.495V95.1596H214.427V92.9437ZM231.632 92.0062V99.7789H229.084V86.688H231.53V88.8187H231.692C231.993 88.1255 232.465 87.5687 233.107 87.1482C233.755 86.7278 234.57 86.5176 235.553 86.5176C236.445 86.5176 237.226 86.7051 237.897 87.0801C238.567 87.4494 239.087 88.0005 239.456 88.7335C239.826 89.4664 240.01 90.3727 240.01 91.4522V99.7789H237.462V91.759C237.462 90.8102 237.215 90.0687 236.721 89.5346C236.226 88.9948 235.547 88.725 234.684 88.725C234.093 88.725 233.567 88.8528 233.107 89.1085C232.652 89.3642 232.292 89.7392 232.025 90.2335C231.763 90.7221 231.632 91.313 231.632 92.0062ZM243.428 99.7789V86.688H245.976V99.7789H243.428ZM244.715 84.6681C244.272 84.6681 243.891 84.5204 243.573 84.225C243.26 83.9238 243.104 83.5659 243.104 83.1511C243.104 82.7306 243.26 82.3727 243.573 82.0772C243.891 81.7761 244.272 81.6255 244.715 81.6255C245.158 81.6255 245.536 81.7761 245.848 82.0772C246.167 82.3727 246.326 82.7306 246.326 83.1511C246.326 83.5659 246.167 83.9238 245.848 84.225C245.536 84.5204 245.158 84.6681 244.715 84.6681ZM249.404 99.7789V86.688H251.85V88.8187H252.012C252.285 88.0971 252.731 87.5346 253.35 87.1312C253.97 86.7221 254.711 86.5176 255.575 86.5176C256.45 86.5176 257.183 86.7221 257.774 87.1312C258.37 87.5403 258.811 88.1028 259.095 88.8187H259.231C259.544 88.1198 260.041 87.563 260.723 87.1482C261.404 86.7278 262.217 86.5176 263.16 86.5176C264.348 86.5176 265.316 86.8897 266.066 87.634C266.822 88.3784 267.2 89.5005 267.2 91.0005V99.7789H264.652V91.2392C264.652 90.3528 264.41 89.7107 263.927 89.313C263.444 88.9153 262.868 88.7164 262.197 88.7164C261.368 88.7164 260.723 88.9721 260.262 89.4835C259.802 89.9892 259.572 90.6397 259.572 91.4352V99.7789H257.032V91.0772C257.032 90.367 256.811 89.796 256.368 89.3642C255.924 88.9323 255.348 88.7164 254.637 88.7164C254.154 88.7164 253.708 88.8443 253.299 89.1C252.896 89.35 252.569 89.6994 252.319 90.1482C252.075 90.5971 251.953 91.117 251.953 91.7079V99.7789H249.404ZM274.425 100.069C273.596 100.069 272.846 99.9153 272.175 99.6085C271.505 99.296 270.973 98.8443 270.581 98.2534C270.195 97.6625 270.002 96.938 270.002 96.0801C270.002 95.3414 270.144 94.7335 270.428 94.2562C270.712 93.7789 271.096 93.4011 271.578 93.1227C272.061 92.8443 272.601 92.634 273.198 92.492C273.794 92.35 274.402 92.242 275.022 92.1681C275.806 92.0772 276.442 92.0034 276.931 91.9465C277.419 91.884 277.775 91.7846 277.996 91.6482C278.218 91.5119 278.328 91.2903 278.328 90.9835V90.9238C278.328 90.1795 278.118 89.6028 277.698 89.1937C277.283 88.7846 276.664 88.5801 275.84 88.5801C274.982 88.5801 274.306 88.7704 273.811 89.1511C273.323 89.5261 272.985 89.9437 272.797 90.4039L270.402 89.8585C270.686 89.063 271.101 88.421 271.647 87.9323C272.198 87.438 272.831 87.0801 273.547 86.8585C274.263 86.6312 275.016 86.5176 275.806 86.5176C276.328 86.5176 276.882 86.5801 277.468 86.7051C278.059 86.8244 278.61 87.046 279.121 87.3698C279.638 87.6937 280.061 88.1568 280.391 88.759C280.721 89.3556 280.885 90.1312 280.885 91.0857V99.7789H278.397V97.9892H278.294C278.13 98.3187 277.882 98.6426 277.553 98.9607C277.223 99.2789 276.8 99.5431 276.283 99.7534C275.766 99.9636 275.147 100.069 274.425 100.069ZM274.979 98.0232C275.684 98.0232 276.286 97.884 276.786 97.6056C277.292 97.3272 277.675 96.9636 277.936 96.5147C278.203 96.0602 278.337 95.5744 278.337 95.0573V93.3698C278.246 93.4607 278.07 93.546 277.809 93.6255C277.553 93.6994 277.26 93.7647 276.931 93.8215C276.601 93.8727 276.28 93.921 275.968 93.9664C275.655 94.0062 275.394 94.0403 275.184 94.0687C274.689 94.1312 274.238 94.2363 273.828 94.384C273.425 94.5318 273.101 94.7448 272.857 95.0232C272.618 95.296 272.499 95.6596 272.499 96.1142C272.499 96.7448 272.732 97.2221 273.198 97.546C273.664 97.8642 274.257 98.0232 274.979 98.0232ZM290.39 86.688V88.7335H283.24V86.688H290.39ZM285.157 83.5517H287.706V95.9352C287.706 96.4295 287.779 96.8017 287.927 97.0517C288.075 97.296 288.265 97.4636 288.498 97.5545C288.737 97.6397 288.995 97.6823 289.274 97.6823C289.478 97.6823 289.657 97.6681 289.811 97.6397C289.964 97.6113 290.083 97.5886 290.169 97.5715L290.629 99.6767C290.481 99.7335 290.271 99.7903 289.998 99.8471C289.725 99.9096 289.385 99.9437 288.975 99.9494C288.305 99.9607 287.68 99.8414 287.1 99.5914C286.521 99.3414 286.052 98.9551 285.694 98.4323C285.336 97.9096 285.157 97.2534 285.157 96.4636V83.5517ZM293.209 99.7789V86.688H295.757V99.7789H293.209ZM294.496 84.6681C294.053 84.6681 293.672 84.5204 293.354 84.225C293.042 83.9238 292.885 83.5659 292.885 83.1511C292.885 82.7306 293.042 82.3727 293.354 82.0772C293.672 81.7761 294.053 81.6255 294.496 81.6255C294.939 81.6255 295.317 81.7761 295.63 82.0772C295.948 82.3727 296.107 82.7306 296.107 83.1511C296.107 83.5659 295.948 83.9238 295.63 84.225C295.317 84.5204 294.939 84.6681 294.496 84.6681ZM304.7 100.043C303.473 100.043 302.402 99.7619 301.487 99.1994C300.572 98.6369 299.862 97.85 299.356 96.8386C298.85 95.8272 298.598 94.6454 298.598 93.2931C298.598 91.9352 298.85 90.7477 299.356 89.7306C299.862 88.7136 300.572 87.9238 301.487 87.3613C302.402 86.7988 303.473 86.5176 304.7 86.5176C305.927 86.5176 306.998 86.7988 307.913 87.3613C308.828 87.9238 309.538 88.7136 310.044 89.7306C310.549 90.7477 310.802 91.9352 310.802 93.2931C310.802 94.6454 310.549 95.8272 310.044 96.8386C309.538 97.85 308.828 98.6369 307.913 99.1994C306.998 99.7619 305.927 100.043 304.7 100.043ZM304.708 97.9039C305.504 97.9039 306.163 97.6937 306.686 97.2732C307.208 96.8528 307.595 96.2931 307.845 95.5943C308.1 94.8954 308.228 94.1255 308.228 93.2846C308.228 92.4494 308.1 91.6823 307.845 90.9835C307.595 90.2789 307.208 89.7136 306.686 89.2875C306.163 88.8613 305.504 88.6482 304.708 88.6482C303.907 88.6482 303.243 88.8613 302.714 89.2875C302.191 89.7136 301.802 90.2789 301.547 90.9835C301.297 91.6823 301.172 92.4494 301.172 93.2846C301.172 94.1255 301.297 94.8954 301.547 95.5943C301.802 96.2931 302.191 96.8528 302.714 97.2732C303.243 97.6937 303.907 97.9039 304.708 97.9039ZM316.195 92.0062V99.7789H313.647V86.688H316.093V88.8187H316.255C316.556 88.1255 317.027 87.5687 317.669 87.1482C318.317 86.7278 319.132 86.5176 320.115 86.5176C321.007 86.5176 321.789 86.7051 322.459 87.0801C323.13 87.4494 323.65 88.0005 324.019 88.7335C324.388 89.4664 324.573 90.3727 324.573 91.4522V99.7789H322.025V91.759C322.025 90.8102 321.777 90.0687 321.283 89.5346C320.789 88.9948 320.11 88.725 319.246 88.725C318.655 88.725 318.13 88.8528 317.669 89.1085C317.215 89.3642 316.854 89.7392 316.587 90.2335C316.326 90.7221 316.195 91.313 316.195 92.0062ZM344.066 86.9096C343.975 86.1028 343.6 85.4778 342.941 85.0346C342.282 84.5857 341.453 84.3613 340.453 84.3613C339.737 84.3613 339.118 84.475 338.595 84.7022C338.072 84.9238 337.666 85.2306 337.376 85.6227C337.092 86.009 336.95 86.4494 336.95 86.9437C336.95 87.3585 337.047 87.7164 337.24 88.0176C337.439 88.3187 337.697 88.5715 338.015 88.7761C338.339 88.975 338.686 89.1426 339.055 89.2789C339.424 89.4096 339.779 89.5176 340.12 89.6028L341.825 90.046C342.382 90.1823 342.953 90.367 343.538 90.6C344.123 90.8329 344.666 91.1397 345.166 91.5204C345.666 91.9011 346.069 92.3727 346.376 92.9352C346.689 93.4977 346.845 94.171 346.845 94.9551C346.845 95.9437 346.589 96.8215 346.078 97.5886C345.572 98.3556 344.836 98.9607 343.87 99.4039C342.91 99.8471 341.748 100.069 340.385 100.069C339.078 100.069 337.947 99.8613 336.993 99.4465C336.038 99.0318 335.291 98.4437 334.751 97.6823C334.211 96.9153 333.913 96.0062 333.856 94.9551H336.498C336.549 95.5857 336.754 96.1113 337.112 96.5318C337.475 96.9465 337.939 97.2562 338.501 97.4607C339.069 97.6596 339.691 97.759 340.368 97.759C341.112 97.759 341.774 97.6426 342.353 97.4096C342.939 97.171 343.399 96.8414 343.734 96.421C344.069 95.9948 344.237 95.4977 344.237 94.9295C344.237 94.4125 344.089 93.9892 343.794 93.6596C343.504 93.3301 343.109 93.0573 342.609 92.8414C342.115 92.6255 341.555 92.4352 340.93 92.2704L338.868 91.7079C337.47 91.3272 336.362 90.7676 335.544 90.0289C334.731 89.2903 334.325 88.313 334.325 87.0971C334.325 86.0914 334.598 85.2136 335.143 84.4636C335.689 83.7136 336.427 83.1312 337.359 82.7164C338.291 82.296 339.342 82.0857 340.512 82.0857C341.694 82.0857 342.737 82.2931 343.64 82.7079C344.549 83.1227 345.265 83.6937 345.788 84.421C346.311 85.1426 346.583 85.9721 346.606 86.9096H344.066ZM355.898 86.688V88.7335H348.748V86.688H355.898ZM350.665 83.5517H353.213V95.9352C353.213 96.4295 353.287 96.8017 353.435 97.0517C353.583 97.296 353.773 97.4636 354.006 97.5545C354.245 97.6397 354.503 97.6823 354.782 97.6823C354.986 97.6823 355.165 97.6681 355.319 97.6397C355.472 97.6113 355.591 97.5886 355.676 97.5715L356.137 99.6767C355.989 99.7335 355.779 99.7903 355.506 99.8471C355.233 99.9096 354.892 99.9437 354.483 99.9494C353.813 99.9607 353.188 99.8414 352.608 99.5914C352.029 99.3414 351.56 98.9551 351.202 98.4323C350.844 97.9096 350.665 97.2534 350.665 96.4636V83.5517ZM367.01 94.35V86.688H369.566V99.7789H367.061V97.5119H366.924C366.623 98.2107 366.14 98.7931 365.475 99.259C364.816 99.7193 363.995 99.9494 363.012 99.9494C362.172 99.9494 361.427 99.7647 360.779 99.3954C360.137 99.0204 359.632 98.4664 359.262 97.7335C358.899 97.0005 358.717 96.0943 358.717 95.0147V86.688H361.265V94.7079C361.265 95.6 361.512 96.3102 362.007 96.8386C362.501 97.367 363.143 97.6312 363.933 97.6312C364.41 97.6312 364.885 97.5119 365.356 97.2732C365.833 97.0346 366.228 96.6738 366.541 96.1909C366.859 95.7079 367.015 95.0943 367.01 94.35ZM377.891 100.035C376.834 100.035 375.891 99.7647 375.061 99.225C374.238 98.6795 373.59 97.9039 373.118 96.8982C372.652 95.8869 372.419 94.6738 372.419 93.259C372.419 91.8443 372.655 90.634 373.127 89.6284C373.604 88.6227 374.257 87.8528 375.087 87.3187C375.917 86.7846 376.857 86.5176 377.908 86.5176C378.721 86.5176 379.374 86.6539 379.868 86.9267C380.368 87.1937 380.755 87.5062 381.027 87.8642C381.306 88.2221 381.522 88.5375 381.675 88.8102H381.828V82.3244H384.377V99.7789H381.888V97.742H381.675C381.522 98.0204 381.3 98.3386 381.01 98.6965C380.726 99.0545 380.334 99.367 379.834 99.634C379.334 99.9011 378.686 100.035 377.891 100.035ZM378.453 97.8613C379.186 97.8613 379.806 97.6681 380.311 97.2818C380.823 96.8897 381.209 96.3471 381.471 95.6539C381.738 94.9607 381.871 94.1539 381.871 93.2335C381.871 92.3244 381.74 91.5289 381.479 90.8471C381.218 90.1653 380.834 89.634 380.328 89.2534C379.823 88.8727 379.198 88.6823 378.453 88.6823C377.686 88.6823 377.047 88.8812 376.536 89.2789C376.025 89.6767 375.638 90.2193 375.377 90.9068C375.121 91.5943 374.993 92.3698 374.993 93.2335C374.993 94.1085 375.124 94.8954 375.385 95.5943C375.647 96.2931 376.033 96.8471 376.544 97.2562C377.061 97.6596 377.698 97.8613 378.453 97.8613ZM388.014 99.7789V86.688H390.562V99.7789H388.014ZM389.301 84.6681C388.858 84.6681 388.477 84.5204 388.159 84.225C387.846 83.9238 387.69 83.5659 387.69 83.1511C387.69 82.7306 387.846 82.3727 388.159 82.0772C388.477 81.7761 388.858 81.6255 389.301 81.6255C389.744 81.6255 390.122 81.7761 390.434 82.0772C390.752 82.3727 390.912 82.7306 390.912 83.1511C390.912 83.5659 390.752 83.9238 390.434 84.225C390.122 84.5204 389.744 84.6681 389.301 84.6681ZM399.505 100.043C398.277 100.043 397.206 99.7619 396.292 99.1994C395.377 98.6369 394.667 97.85 394.161 96.8386C393.655 95.8272 393.402 94.6454 393.402 93.2931C393.402 91.9352 393.655 90.7477 394.161 89.7306C394.667 88.7136 395.377 87.9238 396.292 87.3613C397.206 86.7988 398.277 86.5176 399.505 86.5176C400.732 86.5176 401.803 86.7988 402.718 87.3613C403.632 87.9238 404.343 88.7136 404.848 89.7306C405.354 90.7477 405.607 91.9352 405.607 93.2931C405.607 94.6454 405.354 95.8272 404.848 96.8386C404.343 97.85 403.632 98.6369 402.718 99.1994C401.803 99.7619 400.732 100.043 399.505 100.043ZM399.513 97.9039C400.309 97.9039 400.968 97.6937 401.49 97.2732C402.013 96.8528 402.4 96.2931 402.65 95.5943C402.905 94.8954 403.033 94.1255 403.033 93.2846C403.033 92.4494 402.905 91.6823 402.65 90.9835C402.4 90.2789 402.013 89.7136 401.49 89.2875C400.968 88.8613 400.309 88.6482 399.513 88.6482C398.712 88.6482 398.047 88.8613 397.519 89.2875C396.996 89.7136 396.607 90.2789 396.351 90.9835C396.101 91.6823 395.976 92.4494 395.976 93.2846C395.976 94.1255 396.101 94.8954 396.351 95.5943C396.607 96.2931 396.996 96.8528 397.519 97.2732C398.047 97.6937 398.712 97.9039 399.513 97.9039Z" fill="#C7C7C7"/>
<path d="M135.459 38C135.368 36.8636 134.942 35.9773 134.18 35.3409C133.43 34.7045 132.288 34.3864 130.754 34.3864C129.777 34.3864 128.976 34.5057 128.351 34.7443C127.737 34.9716 127.283 35.2841 126.987 35.6818C126.692 36.0795 126.538 36.5341 126.527 37.0455C126.504 37.4659 126.578 37.8466 126.749 38.1875C126.93 38.517 127.214 38.8182 127.601 39.0909C127.987 39.3523 128.482 39.5909 129.084 39.8068C129.686 40.0227 130.402 40.2159 131.232 40.3864L134.095 41C136.027 41.4091 137.68 41.9489 139.055 42.6193C140.43 43.2898 141.555 44.0795 142.43 44.9886C143.305 45.8864 143.947 46.8977 144.357 48.0227C144.777 49.1477 144.993 50.375 145.004 51.7045C144.993 54 144.419 55.9432 143.283 57.5341C142.146 59.125 140.521 60.3352 138.408 61.1648C136.305 61.9943 133.777 62.4091 130.822 62.4091C127.788 62.4091 125.141 61.9602 122.879 61.0625C120.629 60.1648 118.879 58.7841 117.629 56.9205C116.391 55.0455 115.766 52.6477 115.754 49.7273H124.754C124.811 50.7955 125.078 51.6932 125.555 52.4205C126.033 53.1477 126.703 53.6989 127.567 54.0739C128.442 54.4489 129.482 54.6364 130.686 54.6364C131.697 54.6364 132.544 54.5114 133.226 54.2614C133.908 54.0114 134.425 53.6648 134.777 53.2216C135.129 52.7784 135.311 52.2727 135.322 51.7045C135.311 51.1705 135.135 50.7045 134.794 50.3068C134.464 49.8977 133.919 49.5341 133.158 49.2159C132.396 48.8864 131.368 48.5795 130.072 48.2955L126.595 47.5455C123.504 46.875 121.067 45.7557 119.283 44.1875C117.51 42.608 116.629 40.4545 116.641 37.7273C116.629 35.5114 117.22 33.5739 118.413 31.9148C119.618 30.2443 121.283 28.9432 123.408 28.0114C125.544 27.0795 127.993 26.6136 130.754 26.6136C133.572 26.6136 136.01 27.0852 138.067 28.0284C140.124 28.9716 141.709 30.3011 142.822 32.017C143.947 33.7216 144.516 35.7159 144.527 38H135.459ZM148.746 62V35.8182H158.155V62H148.746ZM153.45 33.0909C152.178 33.0909 151.087 32.6705 150.178 31.8295C149.268 30.9886 148.814 29.9773 148.814 28.7955C148.814 27.6136 149.268 26.6023 150.178 25.7614C151.087 24.9205 152.178 24.5 153.45 24.5C154.734 24.5 155.825 24.9205 156.723 25.7614C157.632 26.6023 158.087 27.6136 158.087 28.7955C158.087 29.9773 157.632 30.9886 156.723 31.8295C155.825 32.6705 154.734 33.0909 153.45 33.0909ZM171.062 35.8182L174.881 43.9318L178.903 35.8182H188.244L181.222 48.9091L188.585 62H179.312L174.881 53.6818L170.585 62H161.176L168.608 48.9091L161.653 35.8182H171.062ZM210.084 62H199.857L211.379 27.0909H224.334L235.857 62H225.629L217.993 36.7045H217.72L210.084 62ZM208.175 48.2273H227.402V55.3182H208.175V48.2273ZM248.764 47.2727V62H239.355V35.8182H248.287V40.7955H248.56C249.128 39.1364 250.128 37.8352 251.56 36.892C253.003 35.9489 254.685 35.4773 256.605 35.4773C258.457 35.4773 260.065 35.9034 261.429 36.7557C262.804 37.5966 263.866 38.7557 264.616 40.233C265.378 41.7102 265.753 43.3977 265.741 45.2955V62H256.332V47.2727C256.344 45.9773 256.014 44.9602 255.344 44.2216C254.685 43.483 253.764 43.1136 252.582 43.1136C251.81 43.1136 251.134 43.2841 250.554 43.625C249.986 43.9545 249.548 44.4318 249.241 45.0568C248.935 45.6705 248.776 46.4091 248.764 47.2727ZM270.386 62V35.8182H279.795V62H270.386ZM275.091 33.0909C273.818 33.0909 272.727 32.6705 271.818 31.8295C270.909 30.9886 270.455 29.9773 270.455 28.7955C270.455 27.6136 270.909 26.6023 271.818 25.7614C272.727 24.9205 273.818 24.5 275.091 24.5C276.375 24.5 277.466 24.9205 278.364 25.7614C279.273 26.6023 279.727 27.6136 279.727 28.7955C279.727 29.9773 279.273 30.9886 278.364 31.8295C277.466 32.6705 276.375 33.0909 275.091 33.0909ZM284.589 62V35.8182H293.521V40.7955H293.794C294.339 39.1591 295.271 37.8636 296.589 36.9091C297.908 35.9545 299.476 35.4773 301.294 35.4773C303.135 35.4773 304.72 35.9659 306.05 36.9432C307.379 37.9091 308.18 39.1932 308.453 40.7955H308.726C309.169 39.1932 310.112 37.9091 311.555 36.9432C312.999 35.9659 314.692 35.4773 316.635 35.4773C319.146 35.4773 321.18 36.2841 322.737 37.8977C324.305 39.5114 325.089 41.6591 325.089 44.3409V62H315.68V46.7273C315.68 45.5795 315.391 44.6818 314.811 44.0341C314.232 43.375 313.453 43.0455 312.476 43.0455C311.51 43.0455 310.743 43.375 310.175 44.0341C309.618 44.6818 309.339 45.5795 309.339 46.7273V62H300.339V46.7273C300.339 45.5795 300.05 44.6818 299.47 44.0341C298.891 43.375 298.112 43.0455 297.135 43.0455C296.487 43.0455 295.93 43.1932 295.464 43.4886C294.999 43.7841 294.635 44.2102 294.374 44.767C294.124 45.3125 293.999 45.9659 293.999 46.7273V62H284.589ZM337.026 62.4091C335.355 62.4091 333.878 62.1364 332.594 61.5909C331.321 61.0341 330.321 60.1932 329.594 59.0682C328.866 57.9432 328.503 56.5114 328.503 54.7727C328.503 53.3409 328.747 52.1193 329.236 51.108C329.724 50.0852 330.406 49.25 331.281 48.6023C332.156 47.9545 333.173 47.4602 334.332 47.1193C335.503 46.7784 336.764 46.5568 338.116 46.4545C339.582 46.3409 340.759 46.2045 341.645 46.0455C342.543 45.875 343.19 45.642 343.588 45.3466C343.986 45.0398 344.185 44.6364 344.185 44.1364V44.0682C344.185 43.3864 343.923 42.8636 343.401 42.5C342.878 42.1364 342.207 41.9545 341.389 41.9545C340.491 41.9545 339.759 42.1534 339.19 42.5511C338.634 42.9375 338.298 43.5341 338.185 44.3409H329.526C329.639 42.75 330.145 41.2841 331.043 39.9432C331.952 38.5909 333.276 37.5114 335.014 36.7045C336.753 35.8864 338.923 35.4773 341.526 35.4773C343.401 35.4773 345.082 35.6989 346.571 36.142C348.06 36.5739 349.327 37.1818 350.372 37.9659C351.418 38.7386 352.213 39.6477 352.759 40.6932C353.315 41.7273 353.594 42.8523 353.594 44.0682V62H344.798V58.3182H344.594C344.071 59.2955 343.435 60.0852 342.685 60.6875C341.946 61.2898 341.099 61.7273 340.145 62C339.202 62.2727 338.162 62.4091 337.026 62.4091ZM340.094 56.4773C340.81 56.4773 341.48 56.3295 342.105 56.0341C342.741 55.7386 343.259 55.3125 343.656 54.7557C344.054 54.1989 344.253 53.5227 344.253 52.7273V50.5455C344.003 50.6477 343.736 50.7443 343.452 50.8352C343.179 50.9261 342.884 51.0114 342.565 51.0909C342.259 51.1705 341.929 51.2443 341.577 51.3125C341.236 51.3807 340.878 51.4432 340.503 51.5C339.776 51.6136 339.179 51.8011 338.713 52.0625C338.259 52.3125 337.918 52.625 337.69 53C337.474 53.3636 337.366 53.7727 337.366 54.2273C337.366 54.9545 337.622 55.5114 338.134 55.8977C338.645 56.2841 339.298 56.4773 340.094 56.4773ZM373.703 35.8182V42.6364H356.453V35.8182H373.703ZM359.794 29.5455H369.203V53.5795C369.203 53.9432 369.266 54.25 369.391 54.5C369.516 54.7386 369.709 54.9205 369.97 55.0455C370.232 55.1591 370.567 55.2159 370.976 55.2159C371.26 55.2159 371.589 55.1818 371.964 55.1136C372.351 55.0455 372.635 54.9886 372.817 54.9432L374.18 61.5568C373.76 61.6818 373.158 61.8352 372.374 62.017C371.601 62.1989 370.68 62.3182 369.612 62.375C367.453 62.4886 365.641 62.267 364.175 61.7102C362.709 61.142 361.607 60.25 360.868 59.0341C360.129 57.8182 359.771 56.2955 359.794 54.4659V29.5455ZM377.543 62V35.8182H386.952V62H377.543ZM382.247 33.0909C380.974 33.0909 379.884 32.6705 378.974 31.8295C378.065 30.9886 377.611 29.9773 377.611 28.7955C377.611 27.6136 378.065 26.6023 378.974 25.7614C379.884 24.9205 380.974 24.5 382.247 24.5C383.531 24.5 384.622 24.9205 385.52 25.7614C386.429 26.6023 386.884 27.6136 386.884 28.7955C386.884 29.9773 386.429 30.9886 385.52 31.8295C384.622 32.6705 383.531 33.0909 382.247 33.0909ZM404.359 62.4773C401.518 62.4773 399.087 61.9148 397.064 60.7898C395.041 59.6534 393.49 58.0739 392.411 56.0511C391.331 54.017 390.791 51.6591 390.791 48.9773C390.791 46.2955 391.331 43.9432 392.411 41.9205C393.49 39.8864 395.041 38.3068 397.064 37.1818C399.087 36.0455 401.518 35.4773 404.359 35.4773C407.2 35.4773 409.632 36.0455 411.655 37.1818C413.678 38.3068 415.229 39.8864 416.308 41.9205C417.388 43.9432 417.928 46.2955 417.928 48.9773C417.928 51.6591 417.388 54.017 416.308 56.0511C415.229 58.0739 413.678 59.6534 411.655 60.7898C409.632 61.9148 407.2 62.4773 404.359 62.4773ZM404.428 55.5227C405.223 55.5227 405.911 55.2557 406.49 54.7216C407.07 54.1875 407.518 53.4261 407.837 52.4375C408.155 51.4489 408.314 50.2727 408.314 48.9091C408.314 47.5341 408.155 46.358 407.837 45.3807C407.518 44.392 407.07 43.6307 406.49 43.0966C405.911 42.5625 405.223 42.2955 404.428 42.2955C403.587 42.2955 402.865 42.5625 402.263 43.0966C401.661 43.6307 401.2 44.392 400.882 45.3807C400.564 46.358 400.405 47.5341 400.405 48.9091C400.405 50.2727 400.564 51.4489 400.882 52.4375C401.2 53.4261 401.661 54.1875 402.263 54.7216C402.865 55.2557 403.587 55.5227 404.428 55.5227ZM431.155 47.2727V62H421.746V35.8182H430.678V40.7955H430.95C431.518 39.1364 432.518 37.8352 433.95 36.892C435.393 35.9489 437.075 35.4773 438.996 35.4773C440.848 35.4773 442.456 35.9034 443.82 36.7557C445.195 37.5966 446.257 38.7557 447.007 40.233C447.768 41.7102 448.143 43.3977 448.132 45.2955V62H438.723V47.2727C438.734 45.9773 438.405 44.9602 437.734 44.2216C437.075 43.483 436.155 43.1136 434.973 43.1136C434.2 43.1136 433.524 43.2841 432.945 43.625C432.376 43.9545 431.939 44.4318 431.632 45.0568C431.325 45.6705 431.166 46.4091 431.155 47.2727ZM476.709 44.3409H468.05C468.004 43.8068 467.817 43.3466 467.487 42.9602C467.158 42.5739 466.732 42.2784 466.209 42.0739C465.697 41.858 465.129 41.75 464.504 41.75C463.697 41.75 463.004 41.8977 462.425 42.1932C461.845 42.4886 461.561 42.9091 461.572 43.4545C461.561 43.8409 461.726 44.1989 462.067 44.5284C462.419 44.858 463.095 45.1136 464.095 45.2955L469.413 46.25C472.095 46.7386 474.089 47.5625 475.396 48.7216C476.714 49.8693 477.379 51.4091 477.391 53.3409C477.379 55.2045 476.822 56.8239 475.72 58.1989C474.629 59.5625 473.135 60.6193 471.237 61.3693C469.351 62.108 467.197 62.4773 464.777 62.4773C460.777 62.4773 457.646 61.6591 455.385 60.0227C453.135 58.3864 451.879 56.2273 451.618 53.5455H460.959C461.084 54.375 461.493 55.017 462.186 55.4716C462.891 55.9148 463.777 56.1364 464.845 56.1364C465.709 56.1364 466.419 55.9886 466.976 55.6932C467.544 55.3977 467.834 54.9773 467.845 54.4318C467.834 53.9318 467.584 53.5341 467.095 53.2386C466.618 52.9432 465.868 52.7045 464.845 52.5227L460.209 51.7045C457.538 51.2386 455.538 50.3523 454.209 49.0455C452.879 47.7386 452.22 46.0568 452.232 44C452.22 42.1818 452.697 40.642 453.663 39.3807C454.641 38.108 456.033 37.142 457.839 36.483C459.658 35.8125 461.811 35.4773 464.3 35.4773C468.084 35.4773 471.067 36.2614 473.249 37.8295C475.442 39.3977 476.595 41.5682 476.709 44.3409Z" fill="#C7C7C7"/>
</svg>
